<svg xmlns="http://www.w3.org/2000/svg" xmlns:xlink="http://www.w3.org/1999/xlink" xmlns:lucid="lucid" width="2320" height="1673.03"><g transform="translate(0 0)" lucid:page-tab-id="0_0"><path d="M0 0h2320v1673.03H0z" fill="#fff"/><path d="M853.15 117.16a8 8 0 0 1 8-8h836.75a8 8 0 0 1 8 8v25.15a8 8 0 0 1-8 8H861.15a8 8 0 0 1-8-8z" stroke="#000" stroke-opacity="0" stroke-width="2" fill="#fff" fill-opacity="0"/><use xlink:href="#a" transform="matrix(1,0,0,1,857.1465527853429,113.1552239566152) translate(294.84456790123454 25.782777777777778)"/><use xlink:href="#b" transform="matrix(1,0,0,1,857.1465527853429,113.1552239566152) translate(421.4396296296296 25.782777777777778)"/><path d="M960.8 148.97h634.27M960.83 148.97h-1.03" stroke="#a9afb8" stroke-width="2" fill="none"/><path d="M1596.07 149.94h-1.02V148h1.02z" stroke="#a9afb8" stroke-width=".05" fill="#a9afb8"/><path d="M853.15 158.3a8 8 0 0 1 8-8h837.7a8 8 0 0 1 8 8v2.85a8 8 0 0 1-8 8h-837.7a8 8 0 0 1-8-8z" stroke="#000" stroke-opacity="0" stroke-width="2" fill="#fff" fill-opacity="0"/><use xlink:href="#c" transform="matrix(1,0,0,1,857.1465527853434,154.310447913514) translate(271.07383744855974 14.917037037037037)"/><use xlink:href="#d" transform="matrix(1,0,0,1,857.1465527853434,154.310447913514) translate(332.2590226337449 14.917037037037037)"/><use xlink:href="#e" transform="matrix(1,0,0,1,857.1465527853434,154.310447913514) translate(379.8050102880659 14.917037037037037)"/><use xlink:href="#f" transform="matrix(1,0,0,1,857.1465527853434,154.310447913514) translate(418.85305555555556 14.917037037037037)"/><use xlink:href="#g" transform="matrix(1,0,0,1,857.1465527853434,154.310447913514) translate(474.89698559670785 14.917037037037037)"/><use xlink:href="#h" transform="matrix(1,0,0,1,857.1465527853434,154.310447913514) translate(487.3464711934156 14.917037037037037)"/><use xlink:href="#i" transform="matrix(1,0,0,1,857.1465527853434,154.310447913514) translate(522.0605658436214 14.917037037037037)"/><use xlink:href="#j" transform="matrix(1,0,0,1,857.1465527853434,154.310447913514) translate(547.5543930041152 14.917037037037037)"/><path d="M520 689.15a8 8 0 0 1 8-8h244a8 8 0 0 1 8 8v280a8 8 0 0 1-8 8H528a8 8 0 0 1-8-8z" fill="#fff"/><path d="M520 689.15a8 8 0 0 1 8-8h244a8 8 0 0 1 8 8v280a8 8 0 0 1-8 8H528a8 8 0 0 1-8-8zM520 721.15h260M580 721.15v256M685.33 721.15v256" stroke="#333" fill="none"/><use xlink:href="#k" transform="matrix(1,0,0,1,530,681.1552239566661) translate(101.05 23.6)"/><use xlink:href="#l" transform="matrix(1,0,0,1,525,723.6552239566661) translate(13 17.1)"/><use xlink:href="#m" transform="matrix(1,0,0,1,585,723.6552239566661) translate(41.025 17.1)"/><use xlink:href="#n" transform="matrix(1,0,0,1,690.3333333333333,723.6552239566661) translate(19.549999999999997 17.1)"/><use xlink:href="#o" transform="matrix(1,0,0,1,585,755.6552239566661) translate(8.049999999999997 17.1)"/><use xlink:href="#n" transform="matrix(1,0,0,1,690.3333333333333,755.6552239566661) translate(19.549999999999997 17.1)"/><use xlink:href="#p" transform="matrix(1,0,0,1,585,787.6552239566661) translate(9.549999999999997 17.1)"/><use xlink:href="#n" transform="matrix(1,0,0,1,690.3333333333333,787.6552239566661) translate(19.549999999999997 17.1)"/><use xlink:href="#q" transform="matrix(1,0,0,1,585,819.6552239566661) translate(26.574999999999996 17.1)"/><use xlink:href="#n" transform="matrix(1,0,0,1,690.3333333333333,819.6552239566661) translate(19.549999999999997 17.1)"/><use xlink:href="#r" transform="matrix(1,0,0,1,585,851.6552239566661) translate(6.075000000000003 17.1)"/><use xlink:href="#n" transform="matrix(1,0,0,1,690.3333333333333,851.6552239566661) translate(19.549999999999997 17.1)"/><use xlink:href="#s" transform="matrix(1,0,0,1,585,883.6552239566661) translate(6.549999999999997 17.1)"/><use xlink:href="#n" transform="matrix(1,0,0,1,690.3333333333333,883.6552239566661) translate(19.549999999999997 17.1)"/><use xlink:href="#t" transform="matrix(1,0,0,1,585,915.6552239566661) translate(33 17.1)"/><use xlink:href="#u" transform="matrix(1,0,0,1,690.3333333333333,915.6552239566661) translate(28.049999999999997 17.1)"/><use xlink:href="#v" transform="matrix(1,0,0,1,585,947.6552239566661) translate(5.549999999999997 17.1)"/><use xlink:href="#w" transform="matrix(1,0,0,1,690.3333333333333,947.6552239566661) translate(-0.9750000000000014 17.1)"/><path d="M970 609.15a8 8 0 0 1 8-8h394a8 8 0 0 1 8 8v472a8 8 0 0 1-8 8H978a8 8 0 0 1-8-8z" fill="#fff"/><path d="M970 609.15a8 8 0 0 1 8-8h394a8 8 0 0 1 8 8v472a8 8 0 0 1-8 8H978a8 8 0 0 1-8-8zM970 641.15h410M1030 641.15v448M1281 641.15v448" stroke="#333" fill="none"/><use xlink:href="#x" transform="matrix(1,0,0,1,980,601.155223956666) translate(147.575 23.6)"/><use xlink:href="#y" transform="matrix(1,0,0,1,975,643.655223956666) translate(13 17.1)"/><use xlink:href="#z" transform="matrix(1,0,0,1,1035,643.655223956666) translate(113.525 17.1)"/><use xlink:href="#A" transform="matrix(1,0,0,1,1286,643.655223956666) translate(21.549999999999997 17.1)"/><use xlink:href="#B" transform="matrix(1,0,0,1,1035,675.655223956666) translate(98.025 17.1)"/><use xlink:href="#A" transform="matrix(1,0,0,1,1286,675.655223956666) translate(21.549999999999997 17.1)"/><use xlink:href="#C" transform="matrix(1,0,0,1,1035,707.655223956666) translate(53.675 17.1)"/><use xlink:href="#D" transform="matrix(1,0,0,1,1286,707.655223956666) translate(30.049999999999997 17.1)"/><use xlink:href="#E" transform="matrix(1,0,0,1,1035,739.655223956666) translate(20.17500000000001 17.1)"/><use xlink:href="#F" transform="matrix(1,0,0,1,1286,739.655223956666) translate(16.224999999999998 17.1)"/><use xlink:href="#G" transform="matrix(1,0,0,1,1035,771.655223956666) translate(33.150000000000006 17.1)"/><use xlink:href="#F" transform="matrix(1,0,0,1,1286,771.655223956666) translate(16.224999999999998 17.1)"/><use xlink:href="#H" transform="matrix(1,0,0,1,1035,803.655223956666) translate(24.625 17.1)"/><use xlink:href="#F" transform="matrix(1,0,0,1,1286,803.655223956666) translate(16.224999999999998 17.1)"/><use xlink:href="#I" transform="matrix(1,0,0,1,1035,835.655223956666) translate(37.599999999999994 17.1)"/><use xlink:href="#F" transform="matrix(1,0,0,1,1286,835.655223956666) translate(16.224999999999998 17.1)"/><use xlink:href="#J" transform="matrix(1,0,0,1,1035,867.655223956666) translate(2.125 17.1)"/><use xlink:href="#K" transform="matrix(1,0,0,1,1286,867.655223956666) translate(21.224999999999998 17.1)"/><use xlink:href="#L" transform="matrix(1,0,0,1,1035,899.655223956666) translate(6.575000000000003 17.1)"/><use xlink:href="#K" transform="matrix(1,0,0,1,1286,899.655223956666) translate(21.224999999999998 17.1)"/><use xlink:href="#M" transform="matrix(1,0,0,1,1035,931.655223956666) translate(78.025 17.1)"/><use xlink:href="#N" transform="matrix(1,0,0,1,1286,931.655223956666) translate(-0.22500000000000142 17.1)"/><use xlink:href="#O" transform="matrix(1,0,0,1,1035,963.655223956666) translate(78.05 17.1)"/><use xlink:href="#P" transform="matrix(1,0,0,1,1286,963.655223956666) translate(1.0249999999999986 17.1)"/><use xlink:href="#Q" transform="matrix(1,0,0,1,975,995.655223956666) translate(13.524999999999999 17.1)"/><use xlink:href="#R" transform="matrix(1,0,0,1,1035,995.655223956666) translate(64.57499999999999 17.1)"/><use xlink:href="#A" transform="matrix(1,0,0,1,1286,995.655223956666) translate(21.549999999999997 17.1)"/><use xlink:href="#Q" transform="matrix(1,0,0,1,975,1027.6552239566658) translate(13.524999999999999 17.1)"/><use xlink:href="#S" transform="matrix(1,0,0,1,1035,1027.6552239566658) translate(84.07499999999999 17.1)"/><use xlink:href="#A" transform="matrix(1,0,0,1,1286,1027.6552239566658) translate(21.549999999999997 17.1)"/><use xlink:href="#Q" transform="matrix(1,0,0,1,975,1059.6552239566658) translate(13.524999999999999 17.1)"/><use xlink:href="#T" transform="matrix(1,0,0,1,1035,1059.6552239566658) translate(74.05 17.1)"/><use xlink:href="#A" transform="matrix(1,0,0,1,1286,1059.6552239566658) translate(21.549999999999997 17.1)"/><path d="M800.5 737.15H863a12 12 0 0 1 12 12v280a12 12 0 0 0 12 12h43" stroke="#333" fill="none"/><path d="M790.5 747.15v-20M780.5 737.15h20M800.5 747.15v-20" stroke="#333" fill="#fff"/><path d="M969.28 1051.15l-20-10 20-10" stroke="#333" fill="#fff" fill-opacity="0"/><path d="M969.28 1041.15h-20M949.28 1041.15c0 5.53-4.48 10-10 10-5.53 0-10-4.47-10-10 0-5.52 4.47-10 10-10 5.52 0 10 4.48 10 10" stroke="#333" fill="#fff"/><path d="M1020 205.16a8 8 0 0 1 8-8h394a8 8 0 0 1 8 8v280a8 8 0 0 1-8 8h-394a8 8 0 0 1-8-8z" fill="#fff"/><path d="M1020 205.16a8 8 0 0 1 8-8h394a8 8 0 0 1 8 8v280a8 8 0 0 1-8 8h-394a8 8 0 0 1-8-8zM1020 237.16h410M1080 237.16v256M1329.66 237.16v256" stroke="#333" fill="none"/><use xlink:href="#U" transform="matrix(1,0,0,1,1030,197.15522395675703) translate(158.55 23.6)"/><use xlink:href="#y" transform="matrix(1,0,0,1,1025,239.65522395675703) translate(13 17.1)"/><use xlink:href="#z" transform="matrix(1,0,0,1,1085,239.65522395675703) translate(113.025 17.1)"/><use xlink:href="#A" transform="matrix(1,0,0,1,1334.6591038494234,239.65522395675703) translate(22.549999999999997 17.1)"/><use xlink:href="#B" transform="matrix(1,0,0,1,1085,271.655223956757) translate(97.525 17.1)"/><use xlink:href="#A" transform="matrix(1,0,0,1,1334.6591038494234,271.655223956757) translate(22.549999999999997 17.1)"/><use xlink:href="#V" transform="matrix(1,0,0,1,1085,303.655223956757) translate(93.05 17.1)"/><use xlink:href="#P" transform="matrix(1,0,0,1,1334.6591038494234,303.655223956757) translate(2.0249999999999986 17.1)"/><use xlink:href="#W" transform="matrix(1,0,0,1,1085,335.655223956757) translate(57.675 17.1)"/><use xlink:href="#D" transform="matrix(1,0,0,1,1334.6591038494234,335.655223956757) translate(31.049999999999997 17.1)"/><use xlink:href="#X" transform="matrix(1,0,0,1,1085,367.655223956757) translate(57.62499999999999 17.1)"/><use xlink:href="#D" transform="matrix(1,0,0,1,1334.6591038494234,367.655223956757) translate(31.049999999999997 17.1)"/><use xlink:href="#Y" transform="matrix(1,0,0,1,1085,399.655223956757) translate(59.67499999999999 17.1)"/><use xlink:href="#D" transform="matrix(1,0,0,1,1334.6591038494234,399.655223956757) translate(31.049999999999997 17.1)"/><use xlink:href="#Z" transform="matrix(1,0,0,1,1085,431.655223956757) translate(22.625 17.1)"/><use xlink:href="#D" transform="matrix(1,0,0,1,1334.6591038494234,431.655223956757) translate(31.049999999999997 17.1)"/><use xlink:href="#O" transform="matrix(1,0,0,1,1085,463.655223956757) translate(77.55 17.1)"/><use xlink:href="#P" transform="matrix(1,0,0,1,1334.6591038494234,463.655223956757) translate(2.0249999999999986 17.1)"/><path d="M1162.97 561.15v-2a12 12 0 0 1 12-12H1213a12 12 0 0 0 12-12v-21.5" stroke="#333" fill="none"/><path d="M1152.97 600.43l10-20 10 20" stroke="#333" fill="#fff" fill-opacity="0"/><path d="M1162.97 600.43v-20M1172.97 570.43c0 5.53-4.48 10-10 10-5.53 0-10-4.47-10-10 0-5.52 4.47-10 10-10 5.52 0 10 4.48 10 10M1215 503.65h20M1225 493.65v20M1215 513.65h20" stroke="#333" fill="#fff"/><path d="M990 1188a8 8 0 0 1 8-8h284a8 8 0 0 1 8 8v216a8 8 0 0 1-8 8H998a8 8 0 0 1-8-8z" fill="#fff"/><path d="M990 1188a8 8 0 0 1 8-8h284a8 8 0 0 1 8 8v216a8 8 0 0 1-8 8H998a8 8 0 0 1-8-8zM990 1220h300M1050 1220v192M1182 1220v192" stroke="#333" fill="none"/><use xlink:href="#aa" transform="matrix(1,0,0,1,1000,1180) translate(71.44999999999999 23.6)"/><use xlink:href="#ab" transform="matrix(1,0,0,1,1000,1180) translate(161.3 23.6)"/><use xlink:href="#y" transform="matrix(1,0,0,1,995,1222.5) translate(13 17.1)"/><use xlink:href="#z" transform="matrix(1,0,0,1,1055,1222.5) translate(54.525 17.1)"/><use xlink:href="#A" transform="matrix(1,0,0,1,1187.0000000000002,1222.5) translate(26.049999999999997 17.1)"/><use xlink:href="#Q" transform="matrix(1,0,0,1,995,1254.5) translate(13.524999999999999 17.1)"/><use xlink:href="#ac" transform="matrix(1,0,0,1,1055,1254.5) translate(4.074999999999996 17.1)"/><use xlink:href="#A" transform="matrix(1,0,0,1,1187.0000000000002,1254.5) translate(26.049999999999997 17.1)"/><use xlink:href="#Q" transform="matrix(1,0,0,1,995,1286.5) translate(13.524999999999999 17.1)"/><use xlink:href="#ad" transform="matrix(1,0,0,1,1055,1286.5) translate(28.575000000000003 17.1)"/><use xlink:href="#A" transform="matrix(1,0,0,1,1187.0000000000002,1286.5) translate(26.049999999999997 17.1)"/><use xlink:href="#ae" transform="matrix(1,0,0,1,1055,1318.5) translate(42.05 17.1)"/><use xlink:href="#F" transform="matrix(1,0,0,1,1187.0000000000002,1318.5) translate(20.724999999999998 17.1)"/><use xlink:href="#O" transform="matrix(1,0,0,1,1055,1350.5) translate(19.049999999999997 17.1)"/><use xlink:href="#P" transform="matrix(1,0,0,1,1187.0000000000002,1350.5) translate(5.524999999999999 17.1)"/><use xlink:href="#M" transform="matrix(1,0,0,1,1055,1382.5) translate(19.025 17.1)"/><use xlink:href="#N" transform="matrix(1,0,0,1,1187.0000000000002,1382.5) translate(4.274999999999999 17.1)"/><path d="M1440 1208a8 8 0 0 1 8-8h324a8 8 0 0 1 8 8v152a8 8 0 0 1-8 8h-324a8 8 0 0 1-8-8z" fill="#fff"/><path d="M1440 1208a8 8 0 0 1 8-8h324a8 8 0 0 1 8 8v152a8 8 0 0 1-8 8h-324a8 8 0 0 1-8-8zM1440 1240h340M1500 1240v128M1676.05 1240v128" stroke="#333" fill="none"/><use xlink:href="#af" transform="matrix(1,0,0,1,1450,1200) translate(137.075 23.6)"/><use xlink:href="#y" transform="matrix(1,0,0,1,1445,1242.5) translate(13 17.1)"/><use xlink:href="#ag" transform="matrix(1,0,0,1,1505,1242.5) translate(8.575000000000003 17.1)"/><use xlink:href="#A" transform="matrix(1,0,0,1,1681.0472002929805,1242.5) translate(24.049999999999997 17.1)"/><use xlink:href="#ah" transform="matrix(1,0,0,1,1505,1274.5) translate(62.074999999999996 17.1)"/><use xlink:href="#A" transform="matrix(1,0,0,1,1681.0472002929805,1274.5) translate(24.049999999999997 17.1)"/><use xlink:href="#B" transform="matrix(1,0,0,1,1505,1306.5) translate(61.025 17.1)"/><use xlink:href="#A" transform="matrix(1,0,0,1,1681.0472002929805,1306.5) translate(24.049999999999997 17.1)"/><use xlink:href="#O" transform="matrix(1,0,0,1,1505,1338.5) translate(41.05 17.1)"/><use xlink:href="#P" transform="matrix(1,0,0,1,1681.0472002929805,1338.5) translate(3.5249999999999986 17.1)"/><path d="M1140 1140a5.42 5.42 0 0 1 5.42-5.42h6.06a11.48 11.48 0 0 0 11.5-11.5v-13.42" stroke="#333" fill="none"/><path d="M1130 1179.28l10-20 10 20" stroke="#333" fill="#fff" fill-opacity="0"/><path d="M1140 1179.28v-20M1150 1149.28c0 5.52-4.48 10-10 10s-10-4.48-10-10c0-5.53 4.48-10 10-10s10 4.47 10 10M1152.97 1099.65h20M1162.97 1089.65v20M1152.97 1109.65h20" stroke="#333" fill="#fff"/><path d="M1330 1268h25a10 10 0 0 1 10 10 10 10 0 0 0 10 10h44.5" stroke="#333" fill="none"/><path d="M1290.72 1258l20 10-20 10" stroke="#333" fill="#fff" fill-opacity="0"/><path d="M1290.72 1268h20M1330.72 1268c0 5.52-4.47 10-10 10-5.52 0-10-4.48-10-10s4.48-10 10-10c5.53 0 10 4.48 10 10M1429.5 1278v20M1439.5 1288h-20M1419.5 1278v20" stroke="#333" fill="#fff"/><path d="M1480 588a8 8 0 0 1 8-8h304a8 8 0 0 1 8 8v184a8 8 0 0 1-8 8h-304a8 8 0 0 1-8-8z" fill="#fff"/><path d="M1480 588a8 8 0 0 1 8-8h304a8 8 0 0 1 8 8v184a8 8 0 0 1-8 8h-304a8 8 0 0 1-8-8zM1480 620h320M1540 620v160M1692 620v160" stroke="#333" fill="none"/><use xlink:href="#ai" transform="matrix(1,0,0,1,1490,580) translate(109.07499999999999 23.6)"/><use xlink:href="#y" transform="matrix(1,0,0,1,1485,622.5) translate(13 17.1)"/><use xlink:href="#z" transform="matrix(1,0,0,1,1545,622.5) translate(64.025 17.1)"/><use xlink:href="#A" transform="matrix(1,0,0,1,1697,622.5) translate(26.049999999999997 17.1)"/><use xlink:href="#aj" transform="matrix(1,0,0,1,1545,654.5) translate(38.574999999999996 17.1)"/><use xlink:href="#A" transform="matrix(1,0,0,1,1697,654.5) translate(26.049999999999997 17.1)"/><use xlink:href="#ak" transform="matrix(1,0,0,1,1545,686.5) translate(61.05 17.1)"/><use xlink:href="#A" transform="matrix(1,0,0,1,1697,686.5) translate(26.049999999999997 17.1)"/><use xlink:href="#O" transform="matrix(1,0,0,1,1545,718.5) translate(28.549999999999997 17.1)"/><use xlink:href="#P" transform="matrix(1,0,0,1,1697,718.5) translate(5.524999999999999 17.1)"/><use xlink:href="#Q" transform="matrix(1,0,0,1,1485,750.5) translate(13.524999999999999 17.1)"/><use xlink:href="#ac" transform="matrix(1,0,0,1,1545,750.5) translate(13.574999999999996 17.1)"/><use xlink:href="#A" transform="matrix(1,0,0,1,1697,750.5) translate(26.049999999999997 17.1)"/><path d="M1440 636a10 10 0 0 0-10 10v31.15a12 12 0 0 1-12 12h-17.5" stroke="#333" fill="none"/><path d="M1479.28 646l-20-10 20-10" stroke="#333" fill="#fff" fill-opacity="0"/><path d="M1479.28 636h-20M1459.28 636c0 5.52-4.48 10-10 10-5.53 0-10-4.48-10-10s4.47-10 10-10c5.52 0 10 4.48 10 10M1390.5 699.15v-20M1380.5 689.15h20M1400.5 699.15v-20" stroke="#333" fill="#fff"/><path d="M1480 868a8 8 0 0 1 8-8h284a8 8 0 0 1 8 8v248a8 8 0 0 1-8 8h-284a8 8 0 0 1-8-8z" fill="#fff"/><path d="M1480 868a8 8 0 0 1 8-8h284a8 8 0 0 1 8 8v248a8 8 0 0 1-8 8h-284a8 8 0 0 1-8-8zM1480 900h300M1540 900v224M1672 900v224" stroke="#333" fill="none"/><use xlink:href="#al" transform="matrix(1,0,0,1,1490,860) translate(75.4 23.6)"/><use xlink:href="#ab" transform="matrix(1,0,0,1,1490,860) translate(157.35000000000002 23.6)"/><use xlink:href="#y" transform="matrix(1,0,0,1,1485,902.5) translate(13 17.1)"/><use xlink:href="#z" transform="matrix(1,0,0,1,1545,902.5) translate(54.525 17.1)"/><use xlink:href="#A" transform="matrix(1,0,0,1,1677.0000000000002,902.5) translate(26.049999999999997 17.1)"/><use xlink:href="#Q" transform="matrix(1,0,0,1,1485,934.5) translate(13.524999999999999 17.1)"/><use xlink:href="#ac" transform="matrix(1,0,0,1,1545,934.5) translate(4.074999999999996 17.1)"/><use xlink:href="#A" transform="matrix(1,0,0,1,1677.0000000000002,934.5) translate(26.049999999999997 17.1)"/><use xlink:href="#Q" transform="matrix(1,0,0,1,1485,966.5) translate(13.524999999999999 17.1)"/><use xlink:href="#am" transform="matrix(1,0,0,1,1545,966.5) translate(10.099999999999994 17.1)"/><use xlink:href="#A" transform="matrix(1,0,0,1,1677.0000000000002,966.5) translate(26.049999999999997 17.1)"/><use xlink:href="#Q" transform="matrix(1,0,0,1,1485,998.5) translate(13.524999999999999 17.1)"/><use xlink:href="#ad" transform="matrix(1,0,0,1,1545,998.5) translate(28.575000000000003 17.1)"/><use xlink:href="#A" transform="matrix(1,0,0,1,1677.0000000000002,998.5) translate(26.049999999999997 17.1)"/><use xlink:href="#ae" transform="matrix(1,0,0,1,1545,1030.5) translate(42.05 17.1)"/><use xlink:href="#F" transform="matrix(1,0,0,1,1677.0000000000002,1030.5) translate(20.724999999999998 17.1)"/><use xlink:href="#O" transform="matrix(1,0,0,1,1545,1062.5) translate(19.049999999999997 17.1)"/><use xlink:href="#P" transform="matrix(1,0,0,1,1677.0000000000002,1062.5) translate(5.524999999999999 17.1)"/><use xlink:href="#M" transform="matrix(1,0,0,1,1545,1094.5) translate(19.025 17.1)"/><use xlink:href="#N" transform="matrix(1,0,0,1,1677.0000000000002,1094.5) translate(4.274999999999999 17.1)"/><path d="M1628 1162h-9a9 9 0 0 0-9 9v8.5" stroke="#333" fill="none"/><path d="M1639.97 1125.26l-11.05 19.43-8.92-20.5" stroke="#333" fill="#fff" fill-opacity="0"/><path d="M1630 1124.72l-1.08 19.97M1638.4 1154.68c0 5.52-4.5 10-10 10-5.53 0-10-4.48-10-10s4.47-10 10-10c5.5 0 10 4.48 10 10M1620 1189.5h-20M1610 1199.5v-20M1620 1179.5h-20" stroke="#333" fill="#fff"/><path d="M1630 820h5a5 5 0 0 0 5-5v-14.5" stroke="#333" fill="none"/><path d="M1620 859.28l10-20 10 20" stroke="#333" fill="#fff" fill-opacity="0"/><path d="M1630 859.28v-20M1640 829.28c0 5.52-4.48 10-10 10s-10-4.48-10-10c0-5.53 4.48-10 10-10s10 4.47 10 10M1630 790.5h20M1640 780.5v20M1630 800.5h20" stroke="#333" fill="#fff"/><path d="M560 365.15a8 8 0 0 1 8-8h324a8 8 0 0 1 8 8v152a8 8 0 0 1-8 8H568a8 8 0 0 1-8-8z" fill="#fff"/><path d="M560 365.15a8 8 0 0 1 8-8h324a8 8 0 0 1 8 8v152a8 8 0 0 1-8 8H568a8 8 0 0 1-8-8zM560 397.15h340M620 397.15v128M776 397.15v128" stroke="#333" fill="none"/><use xlink:href="#an" transform="matrix(1,0,0,1,570,357.155223956757) translate(114.725 23.6)"/><use xlink:href="#y" transform="matrix(1,0,0,1,565,399.655223956757) translate(13 17.1)"/><use xlink:href="#z" transform="matrix(1,0,0,1,625,399.655223956757) translate(66.025 17.1)"/><use xlink:href="#A" transform="matrix(1,0,0,1,781,399.655223956757) translate(34.05 17.1)"/><use xlink:href="#B" transform="matrix(1,0,0,1,625,431.655223956757) translate(50.525 17.1)"/><use xlink:href="#A" transform="matrix(1,0,0,1,781,431.655223956757) translate(34.05 17.1)"/><use xlink:href="#ao" transform="matrix(1,0,0,1,625,463.655223956757) translate(8.599999999999994 17.1)"/><use xlink:href="#D" transform="matrix(1,0,0,1,781,463.655223956757) translate(42.55 17.1)"/><use xlink:href="#O" transform="matrix(1,0,0,1,625,495.655223956757) translate(30.549999999999997 17.1)"/><use xlink:href="#P" transform="matrix(1,0,0,1,781,495.655223956757) translate(13.524999999999999 17.1)"/><path d="M935 616.15v-159a12 12 0 0 0-12-12h-2.5" stroke="#333" fill="none"/><path d="M967.84 631.02l-18.36-12.76 21.23-7.03" stroke="#333" fill="#fff" fill-opacity="0"/><path d="M969.28 621.12l-19.8-2.87M949.6 616.82c0 5.52-4.5 10-10 10-5.53 0-10-4.48-10-10s4.47-10 10-10c5.5 0 10 4.48 10 10M910.5 455.15v-20M900.5 445.15h20M920.5 455.15v-20" stroke="#333" fill="#fff"/><path d="M1440 947.85h-8.65a1.35 1.35 0 0 1-1.35-1.35 1.35 1.35 0 0 0-1.35-1.35h-28.15" stroke="#333" fill="none"/><path d="M1479.28 957.85l-20-10 20-10" stroke="#333" fill="#fff" fill-opacity="0"/><path d="M1479.28 947.85h-20M1459.28 947.85c0 5.53-4.48 10-10 10-5.53 0-10-4.47-10-10 0-5.52 4.47-10 10-10 5.52 0 10 4.48 10 10M1390.5 955.15v-20M1380.5 945.15h20M1400.5 955.15v-20" stroke="#333" fill="#fff"/><defs><path fill="#a9afb8" d="M24-248c120-7 223 5 221 122C244-46 201 0 124 0H24v-248zM76-40c74 7 117-18 117-86 0-67-45-88-117-82v168" id="ap"/><path fill="#a9afb8" d="M25-224v-37h50v37H25zM25 0v-190h50V0H25" id="aq"/><path fill="#a9afb8" d="M133-34C117-15 103 5 69 4 32 3 11-16 11-54c-1-60 55-63 116-61 1-26-3-47-28-47-18 1-26 9-28 27l-52-2c7-38 36-58 82-57s74 22 75 68l1 82c-1 14 12 18 25 15v27c-30 8-71 5-69-32zm-48 3c29 0 43-24 42-57-32 0-66-3-65 30 0 17 8 27 23 27" id="ar"/><path fill="#a9afb8" d="M195-6C206 82 75 100 31 46c-4-6-6-13-8-21l49-6c3 16 16 24 34 25 40 0 42-37 40-79-11 22-30 35-61 35-53 0-70-43-70-97 0-56 18-96 73-97 30 0 46 14 59 34l2-30h47zm-90-29c32 0 41-27 41-63 0-35-9-62-40-62-32 0-39 29-40 63 0 36 9 62 39 62" id="as"/><path fill="#a9afb8" d="M135-150c-39-12-60 13-60 57V0H25l-1-190h47c2 13-1 29 3 40 6-28 27-53 61-41v41" id="at"/><path fill="#a9afb8" d="M220-157c-53 9-28 100-34 157h-49v-107c1-27-5-49-29-50C55-147 81-57 75 0H25l-1-190h47c2 12-1 28 3 38 10-53 101-56 108 0 13-22 24-43 59-42 82 1 51 116 57 194h-49v-107c-1-25-5-48-29-50" id="au"/><g id="a"><use transform="matrix(0.0728395061728395,0,0,0.0728395061728395,0,0)" xlink:href="#ap"/><use transform="matrix(0.0728395061728395,0,0,0.0728395061728395,18.86543209876543,0)" xlink:href="#aq"/><use transform="matrix(0.0728395061728395,0,0,0.0728395061728395,26.14938271604938,0)" xlink:href="#ar"/><use transform="matrix(0.0728395061728395,0,0,0.0728395061728395,40.717283950617286,0)" xlink:href="#as"/><use transform="matrix(0.0728395061728395,0,0,0.0728395061728395,56.66913580246913,0)" xlink:href="#at"/><use transform="matrix(0.0728395061728395,0,0,0.0728395061728395,66.86666666666666,0)" xlink:href="#ar"/><use transform="matrix(0.0728395061728395,0,0,0.0728395061728395,81.43456790123457,0)" xlink:href="#au"/><use transform="matrix(0.0728395061728395,0,0,0.0728395061728395,104.7432098765432,0)" xlink:href="#ar"/></g><path fill="#a9afb8" d="M137-138c1-29-70-34-71-4 15 46 118 7 119 86 1 83-164 76-172 9l43-7c4 19 20 25 44 25 33 8 57-30 24-41C81-84 22-81 20-136c-2-80 154-74 161-7" id="av"/><path fill="#a9afb8" d="M185-48c-13 30-37 53-82 52C43 2 14-33 14-96s30-98 90-98c62 0 83 45 84 108H66c0 31 8 55 39 56 18 0 30-7 34-22zm-45-69c5-46-57-63-70-21-2 6-4 13-4 21h74" id="aw"/><path fill="#a9afb8" d="M135-194c87-1 58 113 63 194h-50c-7-57 23-157-34-157-59 0-34 97-39 157H25l-1-190h47c2 12-1 28 3 38 12-26 28-41 61-42" id="ax"/><path fill="#a9afb8" d="M115-3C79 11 28 4 28-45v-112H4v-33h27l15-45h31v45h36v33H77v99c-1 23 16 31 38 25v30" id="ay"/><g id="b"><use transform="matrix(0.0728395061728395,0,0,0.0728395061728395,0,0)" xlink:href="#ar"/><use transform="matrix(0.0728395061728395,0,0,0.0728395061728395,14.5679012345679,0)" xlink:href="#av"/><use transform="matrix(0.0728395061728395,0,0,0.0728395061728395,29.1358024691358,0)" xlink:href="#av"/><use transform="matrix(0.0728395061728395,0,0,0.0728395061728395,43.7037037037037,0)" xlink:href="#aw"/><use transform="matrix(0.0728395061728395,0,0,0.0728395061728395,58.2716049382716,0)" xlink:href="#av"/><use transform="matrix(0.0728395061728395,0,0,0.0728395061728395,72.8395061728395,0)" xlink:href="#au"/><use transform="matrix(0.0728395061728395,0,0,0.0728395061728395,96.14814814814815,0)" xlink:href="#aw"/><use transform="matrix(0.0728395061728395,0,0,0.0728395061728395,110.71604938271605,0)" xlink:href="#ax"/><use transform="matrix(0.0728395061728395,0,0,0.0728395061728395,126.66790123456789,0)" xlink:href="#ay"/></g><path fill="#a9afb8" d="M143 4C61 4 22-44 18-125c-5-107 100-154 193-111 17 8 29 25 37 43l-32 9c-13-25-37-40-76-40-61 0-88 39-88 99 0 61 29 100 91 101 35 0 62-11 79-27v-45h-74v-28h105v86C228-13 192 4 143 4" id="az"/><path fill="#a9afb8" d="M84 4C-5 8 30-112 23-190h32v120c0 31 7 50 39 49 72-2 45-101 50-169h31l1 190h-30c-1-10 1-25-2-33-11 22-28 36-60 37" id="aA"/><path fill="#a9afb8" d="M135-143c-3-34-86-38-87 0 15 53 115 12 119 90S17 21 10-45l28-5c4 36 97 45 98 0-10-56-113-15-118-90-4-57 82-63 122-42 12 7 21 19 24 35" id="aB"/><path fill="#a9afb8" d="M59-47c-2 24 18 29 38 22v24C64 9 27 4 27-40v-127H5v-23h24l9-43h21v43h35v23H59v120" id="aC"/><path fill="#a9afb8" d="M141-36C126-15 110 5 73 4 37 3 15-17 15-53c-1-64 63-63 125-63 3-35-9-54-41-54-24 1-41 7-42 31l-33-3c5-37 33-52 76-52 45 0 72 20 72 64v82c-1 20 7 32 28 27v20c-31 9-61-2-59-35zM48-53c0 20 12 33 32 33 41-3 63-29 60-74-43 2-92-5-92 41" id="aD"/><path fill="#a9afb8" d="M108 0H70L1-190h34L89-25l56-165h34" id="aE"/><path fill="#a9afb8" d="M100-194c62-1 85 37 85 99 1 63-27 99-86 99S16-35 15-95c0-66 28-99 85-99zM99-20c44 1 53-31 53-75 0-43-8-75-51-75s-53 32-53 75 10 74 51 75" id="aF"/><g id="c"><use transform="matrix(0.04248971193415638,0,0,0.04248971193415638,0,0)" xlink:href="#az"/><use transform="matrix(0.04248971193415638,0,0,0.04248971193415638,11.897119341563785,0)" xlink:href="#aA"/><use transform="matrix(0.04248971193415638,0,0,0.04248971193415638,20.39506172839506,0)" xlink:href="#aB"/><use transform="matrix(0.04248971193415638,0,0,0.04248971193415638,28.04320987654321,0)" xlink:href="#aC"/><use transform="matrix(0.04248971193415638,0,0,0.04248971193415638,32.29218106995884,0)" xlink:href="#aD"/><use transform="matrix(0.04248971193415638,0,0,0.04248971193415638,40.79012345679012,0)" xlink:href="#aE"/><use transform="matrix(0.04248971193415638,0,0,0.04248971193415638,48.43827160493827,0)" xlink:href="#aF"/></g><path fill="#a9afb8" d="M205 0l-28-72H64L36 0H1l101-248h38L239 0h-34zm-38-99l-47-123c-12 45-31 82-46 123h93" id="aG"/><path fill="#a9afb8" d="M85-194c31 0 48 13 60 33l-1-100h32l1 261h-30c-2-10 0-23-3-31C134-8 116 4 85 4 32 4 16-35 15-94c0-66 23-100 70-100zm9 24c-40 0-46 34-46 75 0 40 6 74 45 74 42 0 51-32 51-76 0-42-9-74-50-73" id="aH"/><path fill="#a9afb8" d="M24 0v-261h32V0H24" id="aI"/><path fill="#a9afb8" d="M101-234c-31-9-42 10-38 44h38v23H63V0H32v-167H5v-23h27c-7-52 17-82 69-68v24" id="aJ"/><g id="d"><use transform="matrix(0.04248971193415638,0,0,0.04248971193415638,0,0)" xlink:href="#aG"/><use transform="matrix(0.04248971193415638,0,0,0.04248971193415638,10.19753086419753,0)" xlink:href="#aH"/><use transform="matrix(0.04248971193415638,0,0,0.04248971193415638,18.695473251028805,0)" xlink:href="#aF"/><use transform="matrix(0.04248971193415638,0,0,0.04248971193415638,27.193415637860078,0)" xlink:href="#aI"/><use transform="matrix(0.04248971193415638,0,0,0.04248971193415638,30.55010288065843,0)" xlink:href="#aJ"/><use transform="matrix(0.04248971193415638,0,0,0.04248971193415638,34.79907407407407,0)" xlink:href="#aF"/></g><path fill="#a9afb8" d="M30-248c87 1 191-15 191 75 0 78-77 80-158 76V0H30v-248zm33 125c57 0 124 11 124-50 0-59-68-47-124-48v98" id="aK"/><path fill="#a9afb8" d="M24-231v-30h32v30H24zM24 0v-190h32V0H24" id="aL"/><path fill="#a9afb8" d="M117-194c89-4 53 116 60 194h-32v-121c0-31-8-49-39-48C34-167 62-67 57 0H25l-1-190h30c1 10-1 24 2 32 11-22 29-35 61-36" id="aM"/><g id="e"><use transform="matrix(0.04248971193415638,0,0,0.04248971193415638,0,0)" xlink:href="#aK"/><use transform="matrix(0.04248971193415638,0,0,0.04248971193415638,10.19753086419753,0)" xlink:href="#aL"/><use transform="matrix(0.04248971193415638,0,0,0.04248971193415638,13.554218106995881,0)" xlink:href="#aM"/><use transform="matrix(0.04248971193415638,0,0,0.04248971193415638,22.05216049382716,0)" xlink:href="#aC"/><use transform="matrix(0.04248971193415638,0,0,0.04248971193415638,26.301131687242798,0)" xlink:href="#aF"/></g><path fill="#a9afb8" d="M209 0H11v-25l151-195H24v-28h176v25L50-27h159V0" id="aN"/><path fill="#a9afb8" d="M115-194c55 1 70 41 70 98S169 2 115 4C84 4 66-9 55-30l1 105H24l-1-265h31l2 30c10-21 28-34 59-34zm-8 174c40 0 45-34 45-75s-6-73-45-74c-42 0-51 32-51 76 0 43 10 73 51 73" id="aO"/><g id="f"><use transform="matrix(0.04248971193415638,0,0,0.04248971193415638,0,0)" xlink:href="#aN"/><use transform="matrix(0.04248971193415638,0,0,0.04248971193415638,9.305246913580246,0)" xlink:href="#aD"/><use transform="matrix(0.04248971193415638,0,0,0.04248971193415638,17.80318930041152,0)" xlink:href="#aO"/><use transform="matrix(0.04248971193415638,0,0,0.04248971193415638,26.301131687242794,0)" xlink:href="#aD"/><use transform="matrix(0.04248971193415638,0,0,0.04248971193415638,34.79907407407407,0)" xlink:href="#aC"/><use transform="matrix(0.04248971193415638,0,0,0.04248971193415638,39.048045267489705,0)" xlink:href="#aD"/></g><path fill="#a9afb8" d="M32 76v-337h29V76H32" id="aP"/><use transform="matrix(0.04248971193415638,0,0,0.04248971193415638,0,0)" xlink:href="#aP" id="g"/><path fill="#a9afb8" d="M114-163C36-179 61-72 57 0H25l-1-190h30c1 12-1 29 2 39 6-27 23-49 58-41v29" id="aQ"/><g id="h"><use transform="matrix(0.04248971193415638,0,0,0.04248971193415638,0,0)" xlink:href="#aG"/><use transform="matrix(0.04248971193415638,0,0,0.04248971193415638,10.19753086419753,0)" xlink:href="#aO"/><use transform="matrix(0.04248971193415638,0,0,0.04248971193415638,18.695473251028805,0)" xlink:href="#aQ"/><use transform="matrix(0.04248971193415638,0,0,0.04248971193415638,23.751748971193415,0)" xlink:href="#aL"/><use transform="matrix(0.04248971193415638,0,0,0.04248971193415638,27.10843621399177,0)" xlink:href="#aI"/></g><path fill="#a9afb8" d="M101-251c82-7 93 87 43 132L82-64C71-53 59-42 53-27h129V0H18c2-99 128-94 128-182 0-28-16-43-45-43s-46 15-49 41l-32-3c6-41 34-60 81-64" id="aR"/><path fill="#a9afb8" d="M155-56V0h-30v-56H8v-25l114-167h33v167h35v25h-35zm-30-156c-27 46-58 90-88 131h88v-131" id="aS"/><path fill="#a9afb8" d="M68-38c1 34 0 65-14 84H32c9-13 17-26 17-46H33v-38h35" id="aT"/><g id="i"><use transform="matrix(0.04248971193415638,0,0,0.04248971193415638,0,0)" xlink:href="#aR"/><use transform="matrix(0.04248971193415638,0,0,0.04248971193415638,8.497942386831275,0)" xlink:href="#aS"/><use transform="matrix(0.04248971193415638,0,0,0.04248971193415638,16.99588477366255,0)" xlink:href="#aT"/></g><path fill="#a9afb8" d="M101-251c68 0 85 55 85 127S166 4 100 4C33 4 14-52 14-124c0-73 17-127 87-127zm-1 229c47 0 54-49 54-102s-4-102-53-102c-51 0-55 48-55 102 0 53 5 102 54 102" id="aU"/><g id="j"><use transform="matrix(0.04248971193415638,0,0,0.04248971193415638,0,0)" xlink:href="#aR"/><use transform="matrix(0.04248971193415638,0,0,0.04248971193415638,8.497942386831275,0)" xlink:href="#aU"/><use transform="matrix(0.04248971193415638,0,0,0.04248971193415638,16.99588477366255,0)" xlink:href="#aR"/><use transform="matrix(0.04248971193415638,0,0,0.04248971193415638,25.493827160493822,0)" xlink:href="#aS"/></g><path d="M232-93c-1 65-40 97-104 97C67 4 28-28 28-90v-158h33c8 89-33 224 67 224 102 0 64-133 71-224h33v155" id="aV"/><path d="M135-143c-3-34-86-38-87 0 15 53 115 12 119 90S17 21 10-45l28-5c4 36 97 45 98 0-10-56-113-15-118-90-4-57 82-63 122-42 12 7 21 19 24 35" id="aW"/><path d="M100-194c63 0 86 42 84 106H49c0 40 14 67 53 68 26 1 43-12 49-29l28 8c-11 28-37 45-77 45C44 4 14-33 15-96c1-61 26-98 85-98zm52 81c6-60-76-77-97-28-3 7-6 17-6 28h103" id="aX"/><path d="M114-163C36-179 61-72 57 0H25l-1-190h30c1 12-1 29 2 39 6-27 23-49 58-41v29" id="aY"/><g id="k"><use transform="matrix(0.05,0,0,0.05,0,0)" xlink:href="#aV"/><use transform="matrix(0.05,0,0,0.05,12.950000000000001,0)" xlink:href="#aW"/><use transform="matrix(0.05,0,0,0.05,21.950000000000003,0)" xlink:href="#aX"/><use transform="matrix(0.05,0,0,0.05,31.950000000000003,0)" xlink:href="#aY"/></g><path d="M30-248c87 1 191-15 191 75 0 78-77 80-158 76V0H30v-248zm33 125c57 0 124 11 124-50 0-59-68-47-124-48v98" id="aZ"/><path d="M194 0L95-120 63-95V0H30v-248h33v124l119-124h40L117-140 236 0h-42" id="ba"/><g id="l"><use transform="matrix(0.05,0,0,0.05,0,0)" xlink:href="#aZ"/><use transform="matrix(0.05,0,0,0.05,12,0)" xlink:href="#ba"/></g><path fill="#333" d="M24-231v-30h32v30H24zM24 0v-190h32V0H24" id="bb"/><path fill="#333" d="M85-194c31 0 48 13 60 33l-1-100h32l1 261h-30c-2-10 0-23-3-31C134-8 116 4 85 4 32 4 16-35 15-94c0-66 23-100 70-100zm9 24c-40 0-46 34-46 75 0 40 6 74 45 74 42 0 51-32 51-76 0-42-9-74-50-73" id="bc"/><g id="m"><use transform="matrix(0.05,0,0,0.05,0,0)" xlink:href="#bb"/><use transform="matrix(0.05,0,0,0.05,3.95,0)" xlink:href="#bc"/></g><path fill="#333" d="M127-220V0H93v-220H8v-28h204v28h-85" id="bd"/><path fill="#333" d="M30 0v-248h187v28H63v79h144v27H63v87h162V0H30" id="be"/><path fill="#333" d="M195 0l-74-108L45 0H8l94-129-87-119h37l69 98 67-98h37l-84 118L233 0h-38" id="bf"/><g id="n"><use transform="matrix(0.05,0,0,0.05,0,0)" xlink:href="#bd"/><use transform="matrix(0.05,0,0,0.05,10.950000000000001,0)" xlink:href="#be"/><use transform="matrix(0.05,0,0,0.05,22.950000000000003,0)" xlink:href="#bf"/><use transform="matrix(0.05,0,0,0.05,34.95,0)" xlink:href="#bd"/></g><path fill="#333" d="M84 4C-5 8 30-112 23-190h32v120c0 31 7 50 39 49 72-2 45-101 50-169h31l1 190h-30c-1-10 1-25-2-33-11 22-28 36-60 37" id="bg"/><path fill="#333" d="M135-143c-3-34-86-38-87 0 15 53 115 12 119 90S17 21 10-45l28-5c4 36 97 45 98 0-10-56-113-15-118-90-4-57 82-63 122-42 12 7 21 19 24 35" id="bh"/><path fill="#333" d="M100-194c63 0 86 42 84 106H49c0 40 14 67 53 68 26 1 43-12 49-29l28 8c-11 28-37 45-77 45C44 4 14-33 15-96c1-61 26-98 85-98zm52 81c6-60-76-77-97-28-3 7-6 17-6 28h103" id="bi"/><path fill="#333" d="M114-163C36-179 61-72 57 0H25l-1-190h30c1 12-1 29 2 39 6-27 23-49 58-41v29" id="bj"/><path fill="#333" d="M117-194c89-4 53 116 60 194h-32v-121c0-31-8-49-39-48C34-167 62-67 57 0H25l-1-190h30c1 10-1 24 2 32 11-22 29-35 61-36" id="bk"/><path fill="#333" d="M141-36C126-15 110 5 73 4 37 3 15-17 15-53c-1-64 63-63 125-63 3-35-9-54-41-54-24 1-41 7-42 31l-33-3c5-37 33-52 76-52 45 0 72 20 72 64v82c-1 20 7 32 28 27v20c-31 9-61-2-59-35zM48-53c0 20 12 33 32 33 41-3 63-29 60-74-43 2-92-5-92 41" id="bl"/><path fill="#333" d="M210-169c-67 3-38 105-44 169h-31v-121c0-29-5-50-35-48C34-165 62-65 56 0H25l-1-190h30c1 10-1 24 2 32 10-44 99-50 107 0 11-21 27-35 58-36 85-2 47 119 55 194h-31v-121c0-29-5-49-35-48" id="bm"/><g id="o"><use transform="matrix(0.05,0,0,0.05,0,0)" xlink:href="#bg"/><use transform="matrix(0.05,0,0,0.05,10,0)" xlink:href="#bh"/><use transform="matrix(0.05,0,0,0.05,19,0)" xlink:href="#bi"/><use transform="matrix(0.05,0,0,0.05,29,0)" xlink:href="#bj"/><use transform="matrix(0.05,0,0,0.05,34.95,0)" xlink:href="#bk"/><use transform="matrix(0.05,0,0,0.05,44.95,0)" xlink:href="#bl"/><use transform="matrix(0.05,0,0,0.05,54.95,0)" xlink:href="#bm"/><use transform="matrix(0.05,0,0,0.05,69.9,0)" xlink:href="#bi"/></g><path fill="#333" d="M115-194c55 1 70 41 70 98S169 2 115 4C84 4 66-9 55-30l1 105H24l-1-265h31l2 30c10-21 28-34 59-34zm-8 174c40 0 45-34 45-75s-6-73-45-74c-42 0-51 32-51 76 0 43 10 73 51 73" id="bn"/><path fill="#333" d="M206 0h-36l-40-164L89 0H53L-1-190h32L70-26l43-164h34l41 164 42-164h31" id="bo"/><path fill="#333" d="M100-194c62-1 85 37 85 99 1 63-27 99-86 99S16-35 15-95c0-66 28-99 85-99zM99-20c44 1 53-31 53-75 0-43-8-75-51-75s-53 32-53 75 10 74 51 75" id="bp"/><g id="p"><use transform="matrix(0.05,0,0,0.05,0,0)" xlink:href="#bn"/><use transform="matrix(0.05,0,0,0.05,10,0)" xlink:href="#bl"/><use transform="matrix(0.05,0,0,0.05,20,0)" xlink:href="#bh"/><use transform="matrix(0.05,0,0,0.05,29,0)" xlink:href="#bh"/><use transform="matrix(0.05,0,0,0.05,38,0)" xlink:href="#bo"/><use transform="matrix(0.05,0,0,0.05,50.95,0)" xlink:href="#bp"/><use transform="matrix(0.05,0,0,0.05,60.95,0)" xlink:href="#bj"/><use transform="matrix(0.05,0,0,0.05,66.9,0)" xlink:href="#bc"/></g><path fill="#333" d="M24 0v-261h32V0H24" id="bq"/><g id="q"><use transform="matrix(0.05,0,0,0.05,0,0)" xlink:href="#bi"/><use transform="matrix(0.05,0,0,0.05,10,0)" xlink:href="#bm"/><use transform="matrix(0.05,0,0,0.05,24.950000000000003,0)" xlink:href="#bl"/><use transform="matrix(0.05,0,0,0.05,34.95,0)" xlink:href="#bb"/><use transform="matrix(0.05,0,0,0.05,38.900000000000006,0)" xlink:href="#bq"/></g><path fill="#333" d="M101-234c-31-9-42 10-38 44h38v23H63V0H32v-167H5v-23h27c-7-52 17-82 69-68v24" id="br"/><path fill="#333" d="M59-47c-2 24 18 29 38 22v24C64 9 27 4 27-40v-127H5v-23h24l9-43h21v43h35v23H59v120" id="bs"/><path fill="#333" d="M-5 72V49h209v23H-5" id="bt"/><g id="r"><use transform="matrix(0.05,0,0,0.05,0,0)" xlink:href="#br"/><use transform="matrix(0.05,0,0,0.05,5,0)" xlink:href="#bb"/><use transform="matrix(0.05,0,0,0.05,8.95,0)" xlink:href="#bj"/><use transform="matrix(0.05,0,0,0.05,14.899999999999999,0)" xlink:href="#bh"/><use transform="matrix(0.05,0,0,0.05,23.9,0)" xlink:href="#bs"/><use transform="matrix(0.05,0,0,0.05,28.899999999999995,0)" xlink:href="#bt"/><use transform="matrix(0.05,0,0,0.05,38.9,0)" xlink:href="#bk"/><use transform="matrix(0.05,0,0,0.05,48.9,0)" xlink:href="#bl"/><use transform="matrix(0.05,0,0,0.05,58.900000000000006,0)" xlink:href="#bm"/><use transform="matrix(0.05,0,0,0.05,73.85,0)" xlink:href="#bi"/></g><g id="s"><use transform="matrix(0.05,0,0,0.05,0,0)" xlink:href="#bq"/><use transform="matrix(0.05,0,0,0.05,3.95,0)" xlink:href="#bl"/><use transform="matrix(0.05,0,0,0.05,13.949999999999998,0)" xlink:href="#bh"/><use transform="matrix(0.05,0,0,0.05,22.95,0)" xlink:href="#bs"/><use transform="matrix(0.05,0,0,0.05,27.950000000000003,0)" xlink:href="#bt"/><use transform="matrix(0.05,0,0,0.05,37.95,0)" xlink:href="#bk"/><use transform="matrix(0.05,0,0,0.05,47.95,0)" xlink:href="#bl"/><use transform="matrix(0.05,0,0,0.05,57.95,0)" xlink:href="#bm"/><use transform="matrix(0.05,0,0,0.05,72.9,0)" xlink:href="#bi"/></g><path fill="#333" d="M177-190C167-65 218 103 67 71c-23-6-38-20-44-43l32-5c15 47 100 32 89-28v-30C133-14 115 1 83 1 29 1 15-40 15-95c0-56 16-97 71-98 29-1 48 16 59 35 1-10 0-23 2-32h30zM94-22c36 0 50-32 50-73 0-42-14-75-50-75-39 0-46 34-46 75s6 73 46 73" id="bu"/><g id="t"><use transform="matrix(0.05,0,0,0.05,0,0)" xlink:href="#bl"/><use transform="matrix(0.05,0,0,0.05,10,0)" xlink:href="#bu"/><use transform="matrix(0.05,0,0,0.05,20,0)" xlink:href="#bi"/></g><path fill="#333" d="M33 0v-248h34V0H33" id="bv"/><path fill="#333" d="M190 0L58-211 59 0H30v-248h39L202-35l-2-213h31V0h-41" id="bw"/><g id="u"><use transform="matrix(0.05,0,0,0.05,0,0)" xlink:href="#bv"/><use transform="matrix(0.05,0,0,0.05,5,0)" xlink:href="#bw"/><use transform="matrix(0.05,0,0,0.05,17.950000000000003,0)" xlink:href="#bd"/></g><path fill="#333" d="M96-169c-40 0-48 33-48 73s9 75 48 75c24 0 41-14 43-38l32 2c-6 37-31 61-74 61-59 0-76-41-82-99-10-93 101-131 147-64 4 7 5 14 7 22l-32 3c-4-21-16-35-41-35" id="bx"/><path fill="#333" d="M108 0H70L1-190h34L89-25l56-165h34" id="by"/><g id="v"><use transform="matrix(0.05,0,0,0.05,0,0)" xlink:href="#bb"/><use transform="matrix(0.05,0,0,0.05,3.95,0)" xlink:href="#bh"/><use transform="matrix(0.05,0,0,0.05,12.949999999999998,0)" xlink:href="#bt"/><use transform="matrix(0.05,0,0,0.05,22.95,0)" xlink:href="#bl"/><use transform="matrix(0.05,0,0,0.05,32.95,0)" xlink:href="#bx"/><use transform="matrix(0.05,0,0,0.05,41.95,0)" xlink:href="#bs"/><use transform="matrix(0.05,0,0,0.05,46.95,0)" xlink:href="#bb"/><use transform="matrix(0.05,0,0,0.05,50.900000000000006,0)" xlink:href="#by"/><use transform="matrix(0.05,0,0,0.05,59.900000000000006,0)" xlink:href="#bl"/><use transform="matrix(0.05,0,0,0.05,69.9,0)" xlink:href="#bs"/><use transform="matrix(0.05,0,0,0.05,74.9,0)" xlink:href="#bi"/></g><path fill="#333" d="M160-131c35 5 61 23 61 61C221 17 115-2 30 0v-248c76 3 177-17 177 60 0 33-19 50-47 57zm-97-11c50-1 110 9 110-42 0-47-63-36-110-37v79zm0 115c55-2 124 14 124-45 0-56-70-42-124-44v89" id="bz"/><path fill="#333" d="M140-251c81 0 123 46 123 126C263-46 219 4 140 4 59 4 17-45 17-125s42-126 123-126zm0 227c63 0 89-41 89-101s-29-99-89-99c-61 0-89 39-89 99S79-25 140-24" id="bA"/><path fill="#333" d="M30 0v-248h33v221h125V0H30" id="bB"/><path fill="#333" d="M205 0l-28-72H64L36 0H1l101-248h38L239 0h-34zm-38-99l-47-123c-12 45-31 82-46 123h93" id="bC"/><g id="w"><use transform="matrix(0.05,0,0,0.05,0,0)" xlink:href="#bz"/><use transform="matrix(0.05,0,0,0.05,12,0)" xlink:href="#bA"/><use transform="matrix(0.05,0,0,0.05,26,0)" xlink:href="#bA"/><use transform="matrix(0.05,0,0,0.05,40,0)" xlink:href="#bB"/><use transform="matrix(0.05,0,0,0.05,50,0)" xlink:href="#be"/><use transform="matrix(0.05,0,0,0.05,62,0)" xlink:href="#bC"/><use transform="matrix(0.05,0,0,0.05,74,0)" xlink:href="#bw"/></g><path d="M127-220V0H93v-220H8v-28h204v28h-85" id="bD"/><path d="M100-194c62-1 85 37 85 99 1 63-27 99-86 99S16-35 15-95c0-66 28-99 85-99zM99-20c44 1 53-31 53-75 0-43-8-75-51-75s-53 32-53 75 10 74 51 75" id="bE"/><path d="M84 4C-5 8 30-112 23-190h32v120c0 31 7 50 39 49 72-2 45-101 50-169h31l1 190h-30c-1-10 1-25-2-33-11 22-28 36-60 37" id="bF"/><path d="M117-194c89-4 53 116 60 194h-32v-121c0-31-8-49-39-48C34-167 62-67 57 0H25l-1-190h30c1 10-1 24 2 32 11-22 29-35 61-36" id="bG"/><path d="M141-36C126-15 110 5 73 4 37 3 15-17 15-53c-1-64 63-63 125-63 3-35-9-54-41-54-24 1-41 7-42 31l-33-3c5-37 33-52 76-52 45 0 72 20 72 64v82c-1 20 7 32 28 27v20c-31 9-61-2-59-35zM48-53c0 20 12 33 32 33 41-3 63-29 60-74-43 2-92-5-92 41" id="bH"/><path d="M210-169c-67 3-38 105-44 169h-31v-121c0-29-5-50-35-48C34-165 62-65 56 0H25l-1-190h30c1 10-1 24 2 32 10-44 99-50 107 0 11-21 27-35 58-36 85-2 47 119 55 194h-31v-121c0-29-5-49-35-48" id="bI"/><path d="M59-47c-2 24 18 29 38 22v24C64 9 27 4 27-40v-127H5v-23h24l9-43h21v43h35v23H59v120" id="bJ"/><g id="x"><use transform="matrix(0.05,0,0,0.05,0,0)" xlink:href="#bD"/><use transform="matrix(0.05,0,0,0.05,8.950000000000001,0)" xlink:href="#bE"/><use transform="matrix(0.05,0,0,0.05,18.950000000000003,0)" xlink:href="#bF"/><use transform="matrix(0.05,0,0,0.05,28.950000000000003,0)" xlink:href="#aY"/><use transform="matrix(0.05,0,0,0.05,34.900000000000006,0)" xlink:href="#bG"/><use transform="matrix(0.05,0,0,0.05,44.900000000000006,0)" xlink:href="#bH"/><use transform="matrix(0.05,0,0,0.05,54.900000000000006,0)" xlink:href="#bI"/><use transform="matrix(0.05,0,0,0.05,69.85000000000001,0)" xlink:href="#aX"/><use transform="matrix(0.05,0,0,0.05,79.85000000000001,0)" xlink:href="#bG"/><use transform="matrix(0.05,0,0,0.05,89.85000000000001,0)" xlink:href="#bJ"/></g><g id="y"><use transform="matrix(0.05,0,0,0.05,0,0)" xlink:href="#aZ"/><use transform="matrix(0.05,0,0,0.05,12,0)" xlink:href="#ba"/></g><path d="M24-231v-30h32v30H24zM24 0v-190h32V0H24" id="bK"/><path d="M85-194c31 0 48 13 60 33l-1-100h32l1 261h-30c-2-10 0-23-3-31C134-8 116 4 85 4 32 4 16-35 15-94c0-66 23-100 70-100zm9 24c-40 0-46 34-46 75 0 40 6 74 45 74 42 0 51-32 51-76 0-42-9-74-50-73" id="bL"/><g id="z"><use transform="matrix(0.05,0,0,0.05,0,0)" xlink:href="#bK"/><use transform="matrix(0.05,0,0,0.05,3.95,0)" xlink:href="#bL"/></g><path d="M30 0v-248h187v28H63v79h144v27H63v87h162V0H30" id="bM"/><path d="M195 0l-74-108L45 0H8l94-129-87-119h37l69 98 67-98h37l-84 118L233 0h-38" id="bN"/><g id="A"><use transform="matrix(0.05,0,0,0.05,0,0)" xlink:href="#bD"/><use transform="matrix(0.05,0,0,0.05,10.950000000000001,0)" xlink:href="#bM"/><use transform="matrix(0.05,0,0,0.05,22.950000000000003,0)" xlink:href="#bN"/><use transform="matrix(0.05,0,0,0.05,34.95,0)" xlink:href="#bD"/></g><g id="B"><use transform="matrix(0.05,0,0,0.05,0,0)" xlink:href="#bG"/><use transform="matrix(0.05,0,0,0.05,10,0)" xlink:href="#bH"/><use transform="matrix(0.05,0,0,0.05,20,0)" xlink:href="#bI"/><use transform="matrix(0.05,0,0,0.05,34.95,0)" xlink:href="#aX"/></g><path d="M115-194c55 1 70 41 70 98S169 2 115 4C84 4 66-9 55-30l1 105H24l-1-265h31l2 30c10-21 28-34 59-34zm-8 174c40 0 45-34 45-75s-6-73-45-74c-42 0-51 32-51 76 0 43 10 73 51 73" id="bO"/><path d="M96-169c-40 0-48 33-48 73s9 75 48 75c24 0 41-14 43-38l32 2c-6 37-31 61-74 61-59 0-76-41-82-99-10-93 101-131 147-64 4 7 5 14 7 22l-32 3c-4-21-16-35-41-35" id="bP"/><path d="M-5 72V49h209v23H-5" id="bQ"/><path d="M24 0v-261h32V0H24" id="bR"/><g id="C"><use transform="matrix(0.05,0,0,0.05,0,0)" xlink:href="#bO"/><use transform="matrix(0.05,0,0,0.05,10,0)" xlink:href="#bH"/><use transform="matrix(0.05,0,0,0.05,20,0)" xlink:href="#aY"/><use transform="matrix(0.05,0,0,0.05,25.950000000000003,0)" xlink:href="#bJ"/><use transform="matrix(0.05,0,0,0.05,30.950000000000003,0)" xlink:href="#bK"/><use transform="matrix(0.05,0,0,0.05,34.9,0)" xlink:href="#bP"/><use transform="matrix(0.05,0,0,0.05,43.9,0)" xlink:href="#bK"/><use transform="matrix(0.05,0,0,0.05,47.85,0)" xlink:href="#bO"/><use transform="matrix(0.05,0,0,0.05,57.85,0)" xlink:href="#bH"/><use transform="matrix(0.05,0,0,0.05,67.85,0)" xlink:href="#bG"/><use transform="matrix(0.05,0,0,0.05,77.85,0)" xlink:href="#bJ"/><use transform="matrix(0.05,0,0,0.05,82.85,0)" xlink:href="#aW"/><use transform="matrix(0.05,0,0,0.05,91.85,0)" xlink:href="#bQ"/><use transform="matrix(0.05,0,0,0.05,101.85,0)" xlink:href="#bR"/><use transform="matrix(0.05,0,0,0.05,105.80000000000001,0)" xlink:href="#bK"/><use transform="matrix(0.05,0,0,0.05,109.75,0)" xlink:href="#bI"/><use transform="matrix(0.05,0,0,0.05,124.7,0)" xlink:href="#bK"/><use transform="matrix(0.05,0,0,0.05,128.65,0)" xlink:href="#bJ"/></g><path d="M33 0v-248h34V0H33" id="bS"/><path d="M190 0L58-211 59 0H30v-248h39L202-35l-2-213h31V0h-41" id="bT"/><g id="D"><use transform="matrix(0.05,0,0,0.05,0,0)" xlink:href="#bS"/><use transform="matrix(0.05,0,0,0.05,5,0)" xlink:href="#bT"/><use transform="matrix(0.05,0,0,0.05,17.950000000000003,0)" xlink:href="#bD"/></g><g id="E"><use transform="matrix(0.05,0,0,0.05,0,0)" xlink:href="#bO"/><use transform="matrix(0.05,0,0,0.05,10,0)" xlink:href="#aY"/><use transform="matrix(0.05,0,0,0.05,15.949999999999998,0)" xlink:href="#aX"/><use transform="matrix(0.05,0,0,0.05,25.950000000000003,0)" xlink:href="#aW"/><use transform="matrix(0.05,0,0,0.05,34.95,0)" xlink:href="#bH"/><use transform="matrix(0.05,0,0,0.05,44.95,0)" xlink:href="#bR"/><use transform="matrix(0.05,0,0,0.05,48.900000000000006,0)" xlink:href="#aX"/><use transform="matrix(0.05,0,0,0.05,58.900000000000006,0)" xlink:href="#bQ"/><use transform="matrix(0.05,0,0,0.05,68.9,0)" xlink:href="#bO"/><use transform="matrix(0.05,0,0,0.05,78.9,0)" xlink:href="#aY"/><use transform="matrix(0.05,0,0,0.05,84.85000000000001,0)" xlink:href="#bK"/><use transform="matrix(0.05,0,0,0.05,88.80000000000001,0)" xlink:href="#bP"/><use transform="matrix(0.05,0,0,0.05,97.80000000000001,0)" xlink:href="#aX"/><use transform="matrix(0.05,0,0,0.05,107.80000000000001,0)" xlink:href="#bQ"/><use transform="matrix(0.05,0,0,0.05,117.80000000000001,0)" xlink:href="#bO"/><use transform="matrix(0.05,0,0,0.05,127.80000000000001,0)" xlink:href="#bH"/><use transform="matrix(0.05,0,0,0.05,137.8,0)" xlink:href="#aY"/><use transform="matrix(0.05,0,0,0.05,143.75,0)" xlink:href="#bJ"/><use transform="matrix(0.05,0,0,0.05,148.75,0)" xlink:href="#bK"/><use transform="matrix(0.05,0,0,0.05,152.7,0)" xlink:href="#bP"/><use transform="matrix(0.05,0,0,0.05,161.7,0)" xlink:href="#bK"/><use transform="matrix(0.05,0,0,0.05,165.64999999999998,0)" xlink:href="#bO"/><use transform="matrix(0.05,0,0,0.05,175.64999999999998,0)" xlink:href="#bH"/><use transform="matrix(0.05,0,0,0.05,185.64999999999998,0)" xlink:href="#bG"/><use transform="matrix(0.05,0,0,0.05,195.64999999999998,0)" xlink:href="#bJ"/></g><path d="M63-220v92h138v28H63V0H30v-248h175v28H63" id="bU"/><path d="M30 0v-248h33v221h125V0H30" id="bV"/><path d="M140-251c81 0 123 46 123 126C263-46 219 4 140 4 59 4 17-45 17-125s42-126 123-126zm0 227c63 0 89-41 89-101s-29-99-89-99c-61 0-89 39-89 99S79-25 140-24" id="bW"/><path d="M205 0l-28-72H64L36 0H1l101-248h38L239 0h-34zm-38-99l-47-123c-12 45-31 82-46 123h93" id="bX"/><g id="F"><use transform="matrix(0.05,0,0,0.05,0,0)" xlink:href="#bU"/><use transform="matrix(0.05,0,0,0.05,10.950000000000001,0)" xlink:href="#bV"/><use transform="matrix(0.05,0,0,0.05,20.950000000000003,0)" xlink:href="#bW"/><use transform="matrix(0.05,0,0,0.05,34.95,0)" xlink:href="#bX"/><use transform="matrix(0.05,0,0,0.05,45.6,0)" xlink:href="#bD"/></g><g id="G"><use transform="matrix(0.05,0,0,0.05,0,0)" xlink:href="#aW"/><use transform="matrix(0.05,0,0,0.05,9,0)" xlink:href="#bH"/><use transform="matrix(0.05,0,0,0.05,19,0)" xlink:href="#bR"/><use transform="matrix(0.05,0,0,0.05,22.95,0)" xlink:href="#aX"/><use transform="matrix(0.05,0,0,0.05,32.95,0)" xlink:href="#bQ"/><use transform="matrix(0.05,0,0,0.05,42.95,0)" xlink:href="#bO"/><use transform="matrix(0.05,0,0,0.05,52.95,0)" xlink:href="#aY"/><use transform="matrix(0.05,0,0,0.05,58.900000000000006,0)" xlink:href="#bK"/><use transform="matrix(0.05,0,0,0.05,62.85,0)" xlink:href="#bP"/><use transform="matrix(0.05,0,0,0.05,71.85000000000001,0)" xlink:href="#aX"/><use transform="matrix(0.05,0,0,0.05,81.85000000000001,0)" xlink:href="#bQ"/><use transform="matrix(0.05,0,0,0.05,91.85000000000001,0)" xlink:href="#bO"/><use transform="matrix(0.05,0,0,0.05,101.85000000000001,0)" xlink:href="#bH"/><use transform="matrix(0.05,0,0,0.05,111.85000000000001,0)" xlink:href="#aY"/><use transform="matrix(0.05,0,0,0.05,117.80000000000001,0)" xlink:href="#bJ"/><use transform="matrix(0.05,0,0,0.05,122.80000000000001,0)" xlink:href="#bK"/><use transform="matrix(0.05,0,0,0.05,126.75,0)" xlink:href="#bP"/><use transform="matrix(0.05,0,0,0.05,135.75,0)" xlink:href="#bK"/><use transform="matrix(0.05,0,0,0.05,139.7,0)" xlink:href="#bO"/><use transform="matrix(0.05,0,0,0.05,149.7,0)" xlink:href="#bH"/><use transform="matrix(0.05,0,0,0.05,159.7,0)" xlink:href="#bG"/><use transform="matrix(0.05,0,0,0.05,169.7,0)" xlink:href="#bJ"/></g><g id="H"><use transform="matrix(0.05,0,0,0.05,0,0)" xlink:href="#bO"/><use transform="matrix(0.05,0,0,0.05,10,0)" xlink:href="#aY"/><use transform="matrix(0.05,0,0,0.05,15.949999999999998,0)" xlink:href="#aX"/><use transform="matrix(0.05,0,0,0.05,25.950000000000003,0)" xlink:href="#aW"/><use transform="matrix(0.05,0,0,0.05,34.95,0)" xlink:href="#bH"/><use transform="matrix(0.05,0,0,0.05,44.95,0)" xlink:href="#bR"/><use transform="matrix(0.05,0,0,0.05,48.900000000000006,0)" xlink:href="#aX"/><use transform="matrix(0.05,0,0,0.05,58.900000000000006,0)" xlink:href="#bQ"/><use transform="matrix(0.05,0,0,0.05,68.9,0)" xlink:href="#bO"/><use transform="matrix(0.05,0,0,0.05,78.9,0)" xlink:href="#aY"/><use transform="matrix(0.05,0,0,0.05,84.85000000000001,0)" xlink:href="#bK"/><use transform="matrix(0.05,0,0,0.05,88.80000000000001,0)" xlink:href="#bP"/><use transform="matrix(0.05,0,0,0.05,97.80000000000001,0)" xlink:href="#aX"/><use transform="matrix(0.05,0,0,0.05,107.80000000000001,0)" xlink:href="#bQ"/><use transform="matrix(0.05,0,0,0.05,117.80000000000001,0)" xlink:href="#aW"/><use transform="matrix(0.05,0,0,0.05,126.80000000000001,0)" xlink:href="#bO"/><use transform="matrix(0.05,0,0,0.05,136.8,0)" xlink:href="#aX"/><use transform="matrix(0.05,0,0,0.05,146.8,0)" xlink:href="#bP"/><use transform="matrix(0.05,0,0,0.05,155.8,0)" xlink:href="#bJ"/><use transform="matrix(0.05,0,0,0.05,160.8,0)" xlink:href="#bH"/><use transform="matrix(0.05,0,0,0.05,170.8,0)" xlink:href="#bJ"/><use transform="matrix(0.05,0,0,0.05,175.8,0)" xlink:href="#bE"/><use transform="matrix(0.05,0,0,0.05,185.8,0)" xlink:href="#aY"/></g><g id="I"><use transform="matrix(0.05,0,0,0.05,0,0)" xlink:href="#aW"/><use transform="matrix(0.05,0,0,0.05,9,0)" xlink:href="#bH"/><use transform="matrix(0.05,0,0,0.05,19,0)" xlink:href="#bR"/><use transform="matrix(0.05,0,0,0.05,22.95,0)" xlink:href="#aX"/><use transform="matrix(0.05,0,0,0.05,32.95,0)" xlink:href="#bQ"/><use transform="matrix(0.05,0,0,0.05,42.95,0)" xlink:href="#bO"/><use transform="matrix(0.05,0,0,0.05,52.95,0)" xlink:href="#aY"/><use transform="matrix(0.05,0,0,0.05,58.900000000000006,0)" xlink:href="#bK"/><use transform="matrix(0.05,0,0,0.05,62.85,0)" xlink:href="#bP"/><use transform="matrix(0.05,0,0,0.05,71.85000000000001,0)" xlink:href="#aX"/><use transform="matrix(0.05,0,0,0.05,81.85000000000001,0)" xlink:href="#bQ"/><use transform="matrix(0.05,0,0,0.05,91.85000000000001,0)" xlink:href="#aW"/><use transform="matrix(0.05,0,0,0.05,100.85000000000001,0)" xlink:href="#bO"/><use transform="matrix(0.05,0,0,0.05,110.85000000000001,0)" xlink:href="#aX"/><use transform="matrix(0.05,0,0,0.05,120.85000000000001,0)" xlink:href="#bP"/><use transform="matrix(0.05,0,0,0.05,129.85000000000002,0)" xlink:href="#bJ"/><use transform="matrix(0.05,0,0,0.05,134.85000000000002,0)" xlink:href="#bH"/><use transform="matrix(0.05,0,0,0.05,144.85000000000002,0)" xlink:href="#bJ"/><use transform="matrix(0.05,0,0,0.05,149.85000000000002,0)" xlink:href="#bE"/><use transform="matrix(0.05,0,0,0.05,159.85000000000002,0)" xlink:href="#aY"/></g><g id="J"><use transform="matrix(0.05,0,0,0.05,0,0)" xlink:href="#bO"/><use transform="matrix(0.05,0,0,0.05,10,0)" xlink:href="#aY"/><use transform="matrix(0.05,0,0,0.05,15.949999999999998,0)" xlink:href="#aX"/><use transform="matrix(0.05,0,0,0.05,25.950000000000003,0)" xlink:href="#aW"/><use transform="matrix(0.05,0,0,0.05,34.95,0)" xlink:href="#bH"/><use transform="matrix(0.05,0,0,0.05,44.95,0)" xlink:href="#bR"/><use transform="matrix(0.05,0,0,0.05,48.900000000000006,0)" xlink:href="#aX"/><use transform="matrix(0.05,0,0,0.05,58.900000000000006,0)" xlink:href="#bQ"/><use transform="matrix(0.05,0,0,0.05,68.9,0)" xlink:href="#bO"/><use transform="matrix(0.05,0,0,0.05,78.9,0)" xlink:href="#bH"/><use transform="matrix(0.05,0,0,0.05,88.9,0)" xlink:href="#aY"/><use transform="matrix(0.05,0,0,0.05,94.85000000000001,0)" xlink:href="#bJ"/><use transform="matrix(0.05,0,0,0.05,99.85000000000001,0)" xlink:href="#bK"/><use transform="matrix(0.05,0,0,0.05,103.80000000000001,0)" xlink:href="#bP"/><use transform="matrix(0.05,0,0,0.05,112.80000000000001,0)" xlink:href="#bK"/><use transform="matrix(0.05,0,0,0.05,116.75,0)" xlink:href="#bO"/><use transform="matrix(0.05,0,0,0.05,126.75,0)" xlink:href="#bH"/><use transform="matrix(0.05,0,0,0.05,136.75,0)" xlink:href="#bG"/><use transform="matrix(0.05,0,0,0.05,146.75,0)" xlink:href="#bJ"/><use transform="matrix(0.05,0,0,0.05,151.75,0)" xlink:href="#bQ"/><use transform="matrix(0.05,0,0,0.05,161.75,0)" xlink:href="#aX"/><use transform="matrix(0.05,0,0,0.05,171.75,0)" xlink:href="#bG"/><use transform="matrix(0.05,0,0,0.05,181.75,0)" xlink:href="#bL"/><use transform="matrix(0.05,0,0,0.05,191.75,0)" xlink:href="#bQ"/><use transform="matrix(0.05,0,0,0.05,201.75,0)" xlink:href="#bL"/><use transform="matrix(0.05,0,0,0.05,211.75,0)" xlink:href="#bH"/><use transform="matrix(0.05,0,0,0.05,221.75,0)" xlink:href="#bJ"/><use transform="matrix(0.05,0,0,0.05,226.75,0)" xlink:href="#aX"/></g><path d="M30-248c118-7 216 8 213 122C240-48 200 0 122 0H30v-248zM63-27c89 8 146-16 146-99s-60-101-146-95v194" id="bY"/><g id="K"><use transform="matrix(0.05,0,0,0.05,0,0)" xlink:href="#bY"/><use transform="matrix(0.05,0,0,0.05,12.950000000000001,0)" xlink:href="#bX"/><use transform="matrix(0.05,0,0,0.05,23.6,0)" xlink:href="#bD"/><use transform="matrix(0.05,0,0,0.05,34.550000000000004,0)" xlink:href="#bM"/></g><g id="L"><use transform="matrix(0.05,0,0,0.05,0,0)" xlink:href="#bO"/><use transform="matrix(0.05,0,0,0.05,10,0)" xlink:href="#aY"/><use transform="matrix(0.05,0,0,0.05,15.949999999999998,0)" xlink:href="#aX"/><use transform="matrix(0.05,0,0,0.05,25.950000000000003,0)" xlink:href="#aW"/><use transform="matrix(0.05,0,0,0.05,34.95,0)" xlink:href="#bH"/><use transform="matrix(0.05,0,0,0.05,44.95,0)" xlink:href="#bR"/><use transform="matrix(0.05,0,0,0.05,48.900000000000006,0)" xlink:href="#aX"/><use transform="matrix(0.05,0,0,0.05,58.900000000000006,0)" xlink:href="#bQ"/><use transform="matrix(0.05,0,0,0.05,68.9,0)" xlink:href="#aW"/><use transform="matrix(0.05,0,0,0.05,77.9,0)" xlink:href="#bO"/><use transform="matrix(0.05,0,0,0.05,87.9,0)" xlink:href="#aX"/><use transform="matrix(0.05,0,0,0.05,97.9,0)" xlink:href="#bP"/><use transform="matrix(0.05,0,0,0.05,106.9,0)" xlink:href="#bJ"/><use transform="matrix(0.05,0,0,0.05,111.9,0)" xlink:href="#bH"/><use transform="matrix(0.05,0,0,0.05,121.9,0)" xlink:href="#bJ"/><use transform="matrix(0.05,0,0,0.05,126.9,0)" xlink:href="#bE"/><use transform="matrix(0.05,0,0,0.05,136.9,0)" xlink:href="#aY"/><use transform="matrix(0.05,0,0,0.05,142.85,0)" xlink:href="#bQ"/><use transform="matrix(0.05,0,0,0.05,152.85,0)" xlink:href="#aX"/><use transform="matrix(0.05,0,0,0.05,162.85,0)" xlink:href="#bG"/><use transform="matrix(0.05,0,0,0.05,172.85,0)" xlink:href="#bL"/><use transform="matrix(0.05,0,0,0.05,182.85,0)" xlink:href="#bQ"/><use transform="matrix(0.05,0,0,0.05,192.85,0)" xlink:href="#bL"/><use transform="matrix(0.05,0,0,0.05,202.85,0)" xlink:href="#bH"/><use transform="matrix(0.05,0,0,0.05,212.85000000000002,0)" xlink:href="#bJ"/><use transform="matrix(0.05,0,0,0.05,217.85000000000002,0)" xlink:href="#aX"/></g><g id="M"><use transform="matrix(0.05,0,0,0.05,0,0)" xlink:href="#bP"/><use transform="matrix(0.05,0,0,0.05,9,0)" xlink:href="#aY"/><use transform="matrix(0.05,0,0,0.05,14.949999999999998,0)" xlink:href="#aX"/><use transform="matrix(0.05,0,0,0.05,24.95,0)" xlink:href="#bH"/><use transform="matrix(0.05,0,0,0.05,34.95,0)" xlink:href="#bJ"/><use transform="matrix(0.05,0,0,0.05,39.95,0)" xlink:href="#aX"/><use transform="matrix(0.05,0,0,0.05,49.95,0)" xlink:href="#bL"/><use transform="matrix(0.05,0,0,0.05,59.95,0)" xlink:href="#bQ"/><use transform="matrix(0.05,0,0,0.05,69.95,0)" xlink:href="#bH"/><use transform="matrix(0.05,0,0,0.05,79.95,0)" xlink:href="#bJ"/></g><path d="M240 0l2-218c-23 76-54 145-80 218h-23L58-218 59 0H30v-248h44l77 211c21-75 51-140 76-211h43V0h-30" id="bZ"/><g id="N"><use transform="matrix(0.05,0,0,0.05,0,0)" xlink:href="#bY"/><use transform="matrix(0.05,0,0,0.05,12.950000000000001,0)" xlink:href="#bX"/><use transform="matrix(0.05,0,0,0.05,23.6,0)" xlink:href="#bD"/><use transform="matrix(0.05,0,0,0.05,34.550000000000004,0)" xlink:href="#bM"/><use transform="matrix(0.05,0,0,0.05,46.550000000000004,0)" xlink:href="#bD"/><use transform="matrix(0.05,0,0,0.05,57.5,0)" xlink:href="#bS"/><use transform="matrix(0.05,0,0,0.05,62.5,0)" xlink:href="#bZ"/><use transform="matrix(0.05,0,0,0.05,77.45,0)" xlink:href="#bM"/></g><path d="M108 0H70L1-190h34L89-25l56-165h34" id="ca"/><g id="O"><use transform="matrix(0.05,0,0,0.05,0,0)" xlink:href="#bK"/><use transform="matrix(0.05,0,0,0.05,3.95,0)" xlink:href="#aW"/><use transform="matrix(0.05,0,0,0.05,12.949999999999998,0)" xlink:href="#bQ"/><use transform="matrix(0.05,0,0,0.05,22.95,0)" xlink:href="#bH"/><use transform="matrix(0.05,0,0,0.05,32.95,0)" xlink:href="#bP"/><use transform="matrix(0.05,0,0,0.05,41.95,0)" xlink:href="#bJ"/><use transform="matrix(0.05,0,0,0.05,46.95,0)" xlink:href="#bK"/><use transform="matrix(0.05,0,0,0.05,50.900000000000006,0)" xlink:href="#ca"/><use transform="matrix(0.05,0,0,0.05,59.900000000000006,0)" xlink:href="#bH"/><use transform="matrix(0.05,0,0,0.05,69.9,0)" xlink:href="#bJ"/><use transform="matrix(0.05,0,0,0.05,74.9,0)" xlink:href="#aX"/></g><path d="M160-131c35 5 61 23 61 61C221 17 115-2 30 0v-248c76 3 177-17 177 60 0 33-19 50-47 57zm-97-11c50-1 110 9 110-42 0-47-63-36-110-37v79zm0 115c55-2 124 14 124-45 0-56-70-42-124-44v89" id="cb"/><g id="P"><use transform="matrix(0.05,0,0,0.05,0,0)" xlink:href="#cb"/><use transform="matrix(0.05,0,0,0.05,12,0)" xlink:href="#bW"/><use transform="matrix(0.05,0,0,0.05,26,0)" xlink:href="#bW"/><use transform="matrix(0.05,0,0,0.05,40,0)" xlink:href="#bV"/><use transform="matrix(0.05,0,0,0.05,50,0)" xlink:href="#bM"/><use transform="matrix(0.05,0,0,0.05,62,0)" xlink:href="#bX"/><use transform="matrix(0.05,0,0,0.05,74,0)" xlink:href="#bT"/></g><g id="Q"><use transform="matrix(0.05,0,0,0.05,0,0)" xlink:href="#bU"/><use transform="matrix(0.05,0,0,0.05,10.950000000000001,0)" xlink:href="#ba"/></g><path d="M177-190C167-65 218 103 67 71c-23-6-38-20-44-43l32-5c15 47 100 32 89-28v-30C133-14 115 1 83 1 29 1 15-40 15-95c0-56 16-97 71-98 29-1 48 16 59 35 1-10 0-23 2-32h30zM94-22c36 0 50-32 50-73 0-42-14-75-50-75-39 0-46 34-46 75s6 73 46 73" id="cc"/><g id="R"><use transform="matrix(0.05,0,0,0.05,0,0)" xlink:href="#ca"/><use transform="matrix(0.05,0,0,0.05,9,0)" xlink:href="#bK"/><use transform="matrix(0.05,0,0,0.05,12.949999999999998,0)" xlink:href="#bL"/><use transform="matrix(0.05,0,0,0.05,22.95,0)" xlink:href="#aX"/><use transform="matrix(0.05,0,0,0.05,32.95,0)" xlink:href="#bE"/><use transform="matrix(0.05,0,0,0.05,42.95,0)" xlink:href="#cc"/><use transform="matrix(0.05,0,0,0.05,52.95,0)" xlink:href="#bH"/><use transform="matrix(0.05,0,0,0.05,62.95,0)" xlink:href="#bI"/><use transform="matrix(0.05,0,0,0.05,77.9,0)" xlink:href="#aX"/><use transform="matrix(0.05,0,0,0.05,87.9,0)" xlink:href="#bQ"/><use transform="matrix(0.05,0,0,0.05,97.9,0)" xlink:href="#bK"/><use transform="matrix(0.05,0,0,0.05,101.85000000000001,0)" xlink:href="#bL"/></g><path d="M206 0h-36l-40-164L89 0H53L-1-190h32L70-26l43-164h34l41 164 42-164h31" id="cd"/><g id="S"><use transform="matrix(0.05,0,0,0.05,0,0)" xlink:href="#bE"/><use transform="matrix(0.05,0,0,0.05,10,0)" xlink:href="#cd"/><use transform="matrix(0.05,0,0,0.05,22.950000000000003,0)" xlink:href="#bG"/><use transform="matrix(0.05,0,0,0.05,32.95,0)" xlink:href="#aX"/><use transform="matrix(0.05,0,0,0.05,42.95,0)" xlink:href="#aY"/><use transform="matrix(0.05,0,0,0.05,48.900000000000006,0)" xlink:href="#bQ"/><use transform="matrix(0.05,0,0,0.05,58.900000000000006,0)" xlink:href="#bK"/><use transform="matrix(0.05,0,0,0.05,62.85,0)" xlink:href="#bL"/></g><path d="M179-190L93 31C79 59 56 82 12 73V49c39 6 53-20 64-50L1-190h34L92-34l54-156h33" id="ce"/><g id="T"><use transform="matrix(0.05,0,0,0.05,0,0)" xlink:href="#bP"/><use transform="matrix(0.05,0,0,0.05,9,0)" xlink:href="#bH"/><use transform="matrix(0.05,0,0,0.05,19,0)" xlink:href="#bJ"/><use transform="matrix(0.05,0,0,0.05,24,0)" xlink:href="#aX"/><use transform="matrix(0.05,0,0,0.05,34,0)" xlink:href="#cc"/><use transform="matrix(0.05,0,0,0.05,44,0)" xlink:href="#bE"/><use transform="matrix(0.05,0,0,0.05,54,0)" xlink:href="#aY"/><use transform="matrix(0.05,0,0,0.05,59.95,0)" xlink:href="#ce"/><use transform="matrix(0.05,0,0,0.05,68.95,0)" xlink:href="#bQ"/><use transform="matrix(0.05,0,0,0.05,78.95,0)" xlink:href="#bK"/><use transform="matrix(0.05,0,0,0.05,82.9,0)" xlink:href="#bL"/></g><path d="M212-179c-10-28-35-45-73-45-59 0-87 40-87 99 0 60 29 101 89 101 43 0 62-24 78-52l27 14C228-24 195 4 139 4 59 4 22-46 18-125c-6-104 99-153 187-111 19 9 31 26 39 46" id="cf"/><g id="U"><use transform="matrix(0.05,0,0,0.05,0,0)" xlink:href="#cf"/><use transform="matrix(0.05,0,0,0.05,12.950000000000001,0)" xlink:href="#bH"/><use transform="matrix(0.05,0,0,0.05,22.950000000000003,0)" xlink:href="#bJ"/><use transform="matrix(0.05,0,0,0.05,27.950000000000003,0)" xlink:href="#aX"/><use transform="matrix(0.05,0,0,0.05,37.95,0)" xlink:href="#cc"/><use transform="matrix(0.05,0,0,0.05,47.95,0)" xlink:href="#bE"/><use transform="matrix(0.05,0,0,0.05,57.95,0)" xlink:href="#aY"/><use transform="matrix(0.05,0,0,0.05,63.900000000000006,0)" xlink:href="#ce"/></g><path d="M101-234c-31-9-42 10-38 44h38v23H63V0H32v-167H5v-23h27c-7-52 17-82 69-68v24" id="cg"/><g id="V"><use transform="matrix(0.05,0,0,0.05,0,0)" xlink:href="#bK"/><use transform="matrix(0.05,0,0,0.05,3.95,0)" xlink:href="#aW"/><use transform="matrix(0.05,0,0,0.05,12.949999999999998,0)" xlink:href="#bQ"/><use transform="matrix(0.05,0,0,0.05,22.95,0)" xlink:href="#cg"/><use transform="matrix(0.05,0,0,0.05,27.950000000000003,0)" xlink:href="#aY"/><use transform="matrix(0.05,0,0,0.05,33.9,0)" xlink:href="#aX"/><use transform="matrix(0.05,0,0,0.05,43.9,0)" xlink:href="#aX"/></g><g id="W"><use transform="matrix(0.05,0,0,0.05,0,0)" xlink:href="#bO"/><use transform="matrix(0.05,0,0,0.05,10,0)" xlink:href="#bH"/><use transform="matrix(0.05,0,0,0.05,20,0)" xlink:href="#aY"/><use transform="matrix(0.05,0,0,0.05,25.950000000000003,0)" xlink:href="#bJ"/><use transform="matrix(0.05,0,0,0.05,30.950000000000003,0)" xlink:href="#bK"/><use transform="matrix(0.05,0,0,0.05,34.9,0)" xlink:href="#bP"/><use transform="matrix(0.05,0,0,0.05,43.9,0)" xlink:href="#bK"/><use transform="matrix(0.05,0,0,0.05,47.85,0)" xlink:href="#bO"/><use transform="matrix(0.05,0,0,0.05,57.85,0)" xlink:href="#bH"/><use transform="matrix(0.05,0,0,0.05,67.85,0)" xlink:href="#bG"/><use transform="matrix(0.05,0,0,0.05,77.85,0)" xlink:href="#bJ"/><use transform="matrix(0.05,0,0,0.05,82.85,0)" xlink:href="#bQ"/><use transform="matrix(0.05,0,0,0.05,92.85,0)" xlink:href="#bR"/><use transform="matrix(0.05,0,0,0.05,96.8,0)" xlink:href="#bK"/><use transform="matrix(0.05,0,0,0.05,100.75,0)" xlink:href="#bI"/><use transform="matrix(0.05,0,0,0.05,115.7,0)" xlink:href="#bK"/><use transform="matrix(0.05,0,0,0.05,119.65,0)" xlink:href="#bJ"/></g><g id="X"><use transform="matrix(0.05,0,0,0.05,0,0)" xlink:href="#aW"/><use transform="matrix(0.05,0,0,0.05,9,0)" xlink:href="#bO"/><use transform="matrix(0.05,0,0,0.05,19,0)" xlink:href="#aX"/><use transform="matrix(0.05,0,0,0.05,29,0)" xlink:href="#bP"/><use transform="matrix(0.05,0,0,0.05,38,0)" xlink:href="#bJ"/><use transform="matrix(0.05,0,0,0.05,43,0)" xlink:href="#bH"/><use transform="matrix(0.05,0,0,0.05,53,0)" xlink:href="#bJ"/><use transform="matrix(0.05,0,0,0.05,58,0)" xlink:href="#bE"/><use transform="matrix(0.05,0,0,0.05,68,0)" xlink:href="#aY"/><use transform="matrix(0.05,0,0,0.05,73.95,0)" xlink:href="#aW"/><use transform="matrix(0.05,0,0,0.05,82.95,0)" xlink:href="#bQ"/><use transform="matrix(0.05,0,0,0.05,92.95,0)" xlink:href="#bR"/><use transform="matrix(0.05,0,0,0.05,96.9,0)" xlink:href="#bK"/><use transform="matrix(0.05,0,0,0.05,100.85000000000001,0)" xlink:href="#bI"/><use transform="matrix(0.05,0,0,0.05,115.80000000000001,0)" xlink:href="#bK"/><use transform="matrix(0.05,0,0,0.05,119.75,0)" xlink:href="#bJ"/></g><g id="Y"><use transform="matrix(0.05,0,0,0.05,0,0)" xlink:href="#aW"/><use transform="matrix(0.05,0,0,0.05,9,0)" xlink:href="#bJ"/><use transform="matrix(0.05,0,0,0.05,14,0)" xlink:href="#aY"/><use transform="matrix(0.05,0,0,0.05,19.95,0)" xlink:href="#aX"/><use transform="matrix(0.05,0,0,0.05,29.950000000000003,0)" xlink:href="#bH"/><use transform="matrix(0.05,0,0,0.05,39.95,0)" xlink:href="#bI"/><use transform="matrix(0.05,0,0,0.05,54.900000000000006,0)" xlink:href="#bK"/><use transform="matrix(0.05,0,0,0.05,58.85,0)" xlink:href="#bG"/><use transform="matrix(0.05,0,0,0.05,68.85000000000001,0)" xlink:href="#cc"/><use transform="matrix(0.05,0,0,0.05,78.85000000000001,0)" xlink:href="#bQ"/><use transform="matrix(0.05,0,0,0.05,88.85000000000001,0)" xlink:href="#bR"/><use transform="matrix(0.05,0,0,0.05,92.80000000000001,0)" xlink:href="#bK"/><use transform="matrix(0.05,0,0,0.05,96.75000000000001,0)" xlink:href="#bI"/><use transform="matrix(0.05,0,0,0.05,111.7,0)" xlink:href="#bK"/><use transform="matrix(0.05,0,0,0.05,115.65000000000003,0)" xlink:href="#bJ"/></g><g id="Z"><use transform="matrix(0.05,0,0,0.05,0,0)" xlink:href="#bP"/><use transform="matrix(0.05,0,0,0.05,9,0)" xlink:href="#bE"/><use transform="matrix(0.05,0,0,0.05,19,0)" xlink:href="#bI"/><use transform="matrix(0.05,0,0,0.05,33.95,0)" xlink:href="#bI"/><use transform="matrix(0.05,0,0,0.05,48.900000000000006,0)" xlink:href="#bK"/><use transform="matrix(0.05,0,0,0.05,52.85,0)" xlink:href="#aW"/><use transform="matrix(0.05,0,0,0.05,61.85,0)" xlink:href="#aW"/><use transform="matrix(0.05,0,0,0.05,70.85000000000001,0)" xlink:href="#bK"/><use transform="matrix(0.05,0,0,0.05,74.80000000000001,0)" xlink:href="#bE"/><use transform="matrix(0.05,0,0,0.05,84.80000000000001,0)" xlink:href="#bG"/><use transform="matrix(0.05,0,0,0.05,94.80000000000001,0)" xlink:href="#bQ"/><use transform="matrix(0.05,0,0,0.05,104.80000000000001,0)" xlink:href="#bO"/><use transform="matrix(0.05,0,0,0.05,114.80000000000001,0)" xlink:href="#aX"/><use transform="matrix(0.05,0,0,0.05,124.80000000000001,0)" xlink:href="#aY"/><use transform="matrix(0.05,0,0,0.05,130.75,0)" xlink:href="#bP"/><use transform="matrix(0.05,0,0,0.05,139.75,0)" xlink:href="#aX"/><use transform="matrix(0.05,0,0,0.05,149.75,0)" xlink:href="#bG"/><use transform="matrix(0.05,0,0,0.05,159.75,0)" xlink:href="#bJ"/><use transform="matrix(0.05,0,0,0.05,164.75,0)" xlink:href="#bH"/><use transform="matrix(0.05,0,0,0.05,174.75,0)" xlink:href="#cc"/><use transform="matrix(0.05,0,0,0.05,184.75,0)" xlink:href="#aX"/></g><g id="aa"><use transform="matrix(0.05,0,0,0.05,0,0)" xlink:href="#aZ"/><use transform="matrix(0.05,0,0,0.05,12,0)" xlink:href="#bH"/><use transform="matrix(0.05,0,0,0.05,22,0)" xlink:href="#aY"/><use transform="matrix(0.05,0,0,0.05,27.950000000000003,0)" xlink:href="#bJ"/><use transform="matrix(0.05,0,0,0.05,32.95,0)" xlink:href="#bK"/><use transform="matrix(0.05,0,0,0.05,36.900000000000006,0)" xlink:href="#bP"/><use transform="matrix(0.05,0,0,0.05,45.900000000000006,0)" xlink:href="#bK"/><use transform="matrix(0.05,0,0,0.05,49.85000000000001,0)" xlink:href="#bO"/><use transform="matrix(0.05,0,0,0.05,59.85,0)" xlink:href="#bH"/><use transform="matrix(0.05,0,0,0.05,69.85000000000001,0)" xlink:href="#bG"/><use transform="matrix(0.05,0,0,0.05,79.85000000000001,0)" xlink:href="#bJ"/></g><path d="M143 0L79-87 56-68V0H24v-261h32v163l83-92h37l-77 82L181 0h-38" id="ch"/><g id="ab"><use transform="matrix(0.05,0,0,0.05,0,0)" xlink:href="#bD"/><use transform="matrix(0.05,0,0,0.05,10.3,0)" xlink:href="#bK"/><use transform="matrix(0.05,0,0,0.05,14.25,0)" xlink:href="#bP"/><use transform="matrix(0.05,0,0,0.05,23.25,0)" xlink:href="#ch"/><use transform="matrix(0.05,0,0,0.05,32.25,0)" xlink:href="#aX"/><use transform="matrix(0.05,0,0,0.05,42.25,0)" xlink:href="#bJ"/></g><g id="ac"><use transform="matrix(0.05,0,0,0.05,0,0)" xlink:href="#bJ"/><use transform="matrix(0.05,0,0,0.05,5,0)" xlink:href="#bE"/><use transform="matrix(0.05,0,0,0.05,15,0)" xlink:href="#bF"/><use transform="matrix(0.05,0,0,0.05,25,0)" xlink:href="#aY"/><use transform="matrix(0.05,0,0,0.05,30.950000000000003,0)" xlink:href="#bG"/><use transform="matrix(0.05,0,0,0.05,40.95,0)" xlink:href="#bH"/><use transform="matrix(0.05,0,0,0.05,50.95,0)" xlink:href="#bI"/><use transform="matrix(0.05,0,0,0.05,65.9,0)" xlink:href="#aX"/><use transform="matrix(0.05,0,0,0.05,75.9,0)" xlink:href="#bG"/><use transform="matrix(0.05,0,0,0.05,85.9,0)" xlink:href="#bJ"/><use transform="matrix(0.05,0,0,0.05,90.9,0)" xlink:href="#bQ"/><use transform="matrix(0.05,0,0,0.05,100.9,0)" xlink:href="#bK"/><use transform="matrix(0.05,0,0,0.05,104.85000000000001,0)" xlink:href="#bL"/></g><g id="ad"><use transform="matrix(0.05,0,0,0.05,0,0)" xlink:href="#bP"/><use transform="matrix(0.05,0,0,0.05,9,0)" xlink:href="#bR"/><use transform="matrix(0.05,0,0,0.05,12.949999999999998,0)" xlink:href="#bK"/><use transform="matrix(0.05,0,0,0.05,16.9,0)" xlink:href="#aX"/><use transform="matrix(0.05,0,0,0.05,26.899999999999995,0)" xlink:href="#bG"/><use transform="matrix(0.05,0,0,0.05,36.9,0)" xlink:href="#bJ"/><use transform="matrix(0.05,0,0,0.05,41.9,0)" xlink:href="#bQ"/><use transform="matrix(0.05,0,0,0.05,51.900000000000006,0)" xlink:href="#bK"/><use transform="matrix(0.05,0,0,0.05,55.85,0)" xlink:href="#bL"/></g><g id="ae"><use transform="matrix(0.05,0,0,0.05,0,0)" xlink:href="#bO"/><use transform="matrix(0.05,0,0,0.05,10,0)" xlink:href="#aY"/><use transform="matrix(0.05,0,0,0.05,15.949999999999998,0)" xlink:href="#bK"/><use transform="matrix(0.05,0,0,0.05,19.9,0)" xlink:href="#bP"/><use transform="matrix(0.05,0,0,0.05,28.899999999999995,0)" xlink:href="#aX"/></g><g id="af"><use transform="matrix(0.05,0,0,0.05,0,0)" xlink:href="#cf"/><use transform="matrix(0.05,0,0,0.05,12.950000000000001,0)" xlink:href="#bR"/><use transform="matrix(0.05,0,0,0.05,16.900000000000002,0)" xlink:href="#bK"/><use transform="matrix(0.05,0,0,0.05,20.85,0)" xlink:href="#aX"/><use transform="matrix(0.05,0,0,0.05,30.85,0)" xlink:href="#bG"/><use transform="matrix(0.05,0,0,0.05,40.85,0)" xlink:href="#bJ"/></g><path d="M115-194c53 0 69 39 70 98 0 66-23 100-70 100C84 3 66-7 56-30L54 0H23l1-261h32v101c10-23 28-34 59-34zm-8 174c40 0 45-34 45-75 0-40-5-75-45-74-42 0-51 32-51 76 0 43 10 73 51 73" id="ci"/><g id="ag"><use transform="matrix(0.05,0,0,0.05,0,0)" xlink:href="#bL"/><use transform="matrix(0.05,0,0,0.05,10,0)" xlink:href="#bE"/><use transform="matrix(0.05,0,0,0.05,20,0)" xlink:href="#bP"/><use transform="matrix(0.05,0,0,0.05,29,0)" xlink:href="#bF"/><use transform="matrix(0.05,0,0,0.05,39,0)" xlink:href="#bI"/><use transform="matrix(0.05,0,0,0.05,53.95,0)" xlink:href="#aX"/><use transform="matrix(0.05,0,0,0.05,63.95,0)" xlink:href="#bG"/><use transform="matrix(0.05,0,0,0.05,73.95,0)" xlink:href="#bJ"/><use transform="matrix(0.05,0,0,0.05,78.95,0)" xlink:href="#bQ"/><use transform="matrix(0.05,0,0,0.05,88.95,0)" xlink:href="#bG"/><use transform="matrix(0.05,0,0,0.05,98.95,0)" xlink:href="#bF"/><use transform="matrix(0.05,0,0,0.05,108.95,0)" xlink:href="#bI"/><use transform="matrix(0.05,0,0,0.05,123.9,0)" xlink:href="#ci"/><use transform="matrix(0.05,0,0,0.05,133.9,0)" xlink:href="#aX"/><use transform="matrix(0.05,0,0,0.05,143.9,0)" xlink:href="#aY"/></g><g id="ah"><use transform="matrix(0.05,0,0,0.05,0,0)" xlink:href="#aX"/><use transform="matrix(0.05,0,0,0.05,10,0)" xlink:href="#bI"/><use transform="matrix(0.05,0,0,0.05,24.950000000000003,0)" xlink:href="#bH"/><use transform="matrix(0.05,0,0,0.05,34.95,0)" xlink:href="#bK"/><use transform="matrix(0.05,0,0,0.05,38.900000000000006,0)" xlink:href="#bR"/></g><path d="M185-189c-5-48-123-54-124 2 14 75 158 14 163 119 3 78-121 87-175 55-17-10-28-26-33-46l33-7c5 56 141 63 141-1 0-78-155-14-162-118-5-82 145-84 179-34 5 7 8 16 11 25" id="cj"/><g id="ai"><use transform="matrix(0.05,0,0,0.05,0,0)" xlink:href="#cj"/><use transform="matrix(0.05,0,0,0.05,12,0)" xlink:href="#bJ"/><use transform="matrix(0.05,0,0,0.05,17,0)" xlink:href="#aY"/><use transform="matrix(0.05,0,0,0.05,22.95,0)" xlink:href="#aX"/><use transform="matrix(0.05,0,0,0.05,32.95,0)" xlink:href="#bH"/><use transform="matrix(0.05,0,0,0.05,42.95,0)" xlink:href="#bI"/><use transform="matrix(0.05,0,0,0.05,57.900000000000006,0)" xlink:href="#bK"/><use transform="matrix(0.05,0,0,0.05,61.85,0)" xlink:href="#bG"/><use transform="matrix(0.05,0,0,0.05,71.85000000000001,0)" xlink:href="#cc"/></g><g id="aj"><use transform="matrix(0.05,0,0,0.05,0,0)" xlink:href="#bO"/><use transform="matrix(0.05,0,0,0.05,10,0)" xlink:href="#bR"/><use transform="matrix(0.05,0,0,0.05,13.949999999999998,0)" xlink:href="#bH"/><use transform="matrix(0.05,0,0,0.05,23.95,0)" xlink:href="#bJ"/><use transform="matrix(0.05,0,0,0.05,28.950000000000003,0)" xlink:href="#cg"/><use transform="matrix(0.05,0,0,0.05,33.95,0)" xlink:href="#bE"/><use transform="matrix(0.05,0,0,0.05,43.95,0)" xlink:href="#aY"/><use transform="matrix(0.05,0,0,0.05,49.900000000000006,0)" xlink:href="#bI"/></g><g id="ak"><use transform="matrix(0.05,0,0,0.05,0,0)" xlink:href="#bF"/><use transform="matrix(0.05,0,0,0.05,10,0)" xlink:href="#aY"/><use transform="matrix(0.05,0,0,0.05,15.949999999999998,0)" xlink:href="#bR"/></g><g id="al"><use transform="matrix(0.05,0,0,0.05,0,0)" xlink:href="#cj"/><use transform="matrix(0.05,0,0,0.05,12,0)" xlink:href="#bO"/><use transform="matrix(0.05,0,0,0.05,22,0)" xlink:href="#aX"/><use transform="matrix(0.05,0,0,0.05,32,0)" xlink:href="#bP"/><use transform="matrix(0.05,0,0,0.05,41,0)" xlink:href="#bJ"/><use transform="matrix(0.05,0,0,0.05,46,0)" xlink:href="#bH"/><use transform="matrix(0.05,0,0,0.05,56,0)" xlink:href="#bJ"/><use transform="matrix(0.05,0,0,0.05,61,0)" xlink:href="#bE"/><use transform="matrix(0.05,0,0,0.05,71,0)" xlink:href="#aY"/></g><g id="am"><use transform="matrix(0.05,0,0,0.05,0,0)" xlink:href="#aW"/><use transform="matrix(0.05,0,0,0.05,9,0)" xlink:href="#bJ"/><use transform="matrix(0.05,0,0,0.05,14,0)" xlink:href="#aY"/><use transform="matrix(0.05,0,0,0.05,19.95,0)" xlink:href="#aX"/><use transform="matrix(0.05,0,0,0.05,29.950000000000003,0)" xlink:href="#bH"/><use transform="matrix(0.05,0,0,0.05,39.95,0)" xlink:href="#bI"/><use transform="matrix(0.05,0,0,0.05,54.900000000000006,0)" xlink:href="#bK"/><use transform="matrix(0.05,0,0,0.05,58.85,0)" xlink:href="#bG"/><use transform="matrix(0.05,0,0,0.05,68.85000000000001,0)" xlink:href="#cc"/><use transform="matrix(0.05,0,0,0.05,78.85000000000001,0)" xlink:href="#bQ"/><use transform="matrix(0.05,0,0,0.05,88.85000000000001,0)" xlink:href="#bK"/><use transform="matrix(0.05,0,0,0.05,92.80000000000001,0)" xlink:href="#bL"/></g><path d="M137 0h-34L2-248h35l83 218 83-218h36" id="ck"/><g id="an"><use transform="matrix(0.05,0,0,0.05,0,0)" xlink:href="#ck"/><use transform="matrix(0.05,0,0,0.05,11.65,0)" xlink:href="#bK"/><use transform="matrix(0.05,0,0,0.05,15.600000000000001,0)" xlink:href="#bL"/><use transform="matrix(0.05,0,0,0.05,25.6,0)" xlink:href="#aX"/><use transform="matrix(0.05,0,0,0.05,35.6,0)" xlink:href="#bE"/><use transform="matrix(0.05,0,0,0.05,45.6,0)" xlink:href="#cc"/><use transform="matrix(0.05,0,0,0.05,55.6,0)" xlink:href="#bH"/><use transform="matrix(0.05,0,0,0.05,65.6,0)" xlink:href="#bI"/><use transform="matrix(0.05,0,0,0.05,80.55,0)" xlink:href="#aX"/></g><g id="ao"><use transform="matrix(0.05,0,0,0.05,0,0)" xlink:href="#bG"/><use transform="matrix(0.05,0,0,0.05,10,0)" xlink:href="#bF"/><use transform="matrix(0.05,0,0,0.05,20,0)" xlink:href="#bI"/><use transform="matrix(0.05,0,0,0.05,34.95,0)" xlink:href="#ci"/><use transform="matrix(0.05,0,0,0.05,44.95,0)" xlink:href="#aX"/><use transform="matrix(0.05,0,0,0.05,54.95,0)" xlink:href="#aY"/><use transform="matrix(0.05,0,0,0.05,60.900000000000006,0)" xlink:href="#bQ"/><use transform="matrix(0.05,0,0,0.05,70.9,0)" xlink:href="#bO"/><use transform="matrix(0.05,0,0,0.05,80.9,0)" xlink:href="#bR"/><use transform="matrix(0.05,0,0,0.05,84.85000000000001,0)" xlink:href="#bH"/><use transform="matrix(0.05,0,0,0.05,94.85000000000001,0)" xlink:href="#ce"/><use transform="matrix(0.05,0,0,0.05,103.85000000000001,0)" xlink:href="#aX"/><use transform="matrix(0.05,0,0,0.05,113.85000000000001,0)" xlink:href="#aY"/><use transform="matrix(0.05,0,0,0.05,119.80000000000001,0)" xlink:href="#aW"/></g></defs></g></svg>